ISO-10303-21;
HEADER;
FILE_DESCRIPTION (( 'STEP AP203' ),
    '1' );
FILE_NAME ('ball.STEP',
    '2025-06-14T13:23:07',
    ( '' ),
    ( '' ),
    'SwSTEP 2.0',
    'SolidWorks 2023',
    '' );
FILE_SCHEMA (( 'CONFIG_CONTROL_DESIGN' ));
ENDSEC;

DATA;
#1 = CC_DESIGN_DATE_AND_TIME_ASSIGNMENT ( #24, #89, ( #69 ) ) ;
#2 = ORIENTED_EDGE ( 'NONE', *, *, #82, .T. ) ;
#3 = CC_DESIGN_PERSON_AND_ORGANIZATION_ASSIGNMENT ( #54, #56, ( #69 ) ) ;
#4 = DIRECTION ( 'NONE',  ( 1.224646799147353207E-16, 0.000000000000000000, -1.000000000000000000 ) ) ;
#5 =( LENGTH_UNIT ( ) NAMED_UNIT ( * ) SI_UNIT ( .MILLI., .METRE. ) );
#6 = FACE_OUTER_BOUND ( 'NONE', #81, .T. ) ;
#7 = APPROVAL_STATUS ( 'not_yet_approved' ) ;
#8 = APPROVAL_STATUS ( 'not_yet_approved' ) ;
#9 = APPROVAL_DATE_TIME ( #120, #38 ) ;
#10 = CIRCLE ( 'NONE', #26, 15.00000000000000000 ) ;
#11 = MANIFOLD_SOLID_BREP ( 'Revolve1', #109 ) ;
#12 = DIRECTION ( 'NONE',  ( 0.000000000000000000, 0.000000000000000000, -1.000000000000000000 ) ) ;
#13 = DIRECTION ( 'NONE',  ( 1.000000000000000000, 0.000000000000000000, 0.000000000000000000 ) ) ;
#14 = ORIENTED_EDGE ( 'NONE', *, *, #80, .T. ) ;
#15 = CC_DESIGN_APPROVAL ( #103, ( #59 ) ) ;
#16 = COORDINATED_UNIVERSAL_TIME_OFFSET ( 5, 30, .AHEAD. ) ;
#17 = DATE_TIME_ROLE ( 'classification_date' ) ;
#18 = PERSON_AND_ORGANIZATION_ROLE ( 'design_owner' ) ;
#19 = APPROVAL_PERSON_ORGANIZATION ( #67, #72, #28 ) ;
#20 = DIRECTION ( 'NONE',  ( -1.000000000000000000, 0.000000000000000000, -1.224646799147352961E-16 ) ) ;
#21 = EDGE_LOOP ( 'NONE', ( #31, #14 ) ) ;
#22 = ADVANCED_BREP_SHAPE_REPRESENTATION ( 'ball', ( #11, #116 ), #90 ) ;
#23 = DATE_AND_TIME ( #75, #102 ) ;
#24 = DATE_AND_TIME ( #70, #125 ) ;
#25 = CARTESIAN_POINT ( 'NONE',  ( 0.000000000000000000, 0.000000000000000000, 0.000000000000000000 ) ) ;
#26 = AXIS2_PLACEMENT_3D ( 'NONE', #49, #4, #20 ) ;
#27 = LOCAL_TIME ( 18, 53, 7.000000000000000000, #122 ) ;
#28 = APPROVAL_ROLE ( '' ) ;
#29 = CC_DESIGN_PERSON_AND_ORGANIZATION_ASSIGNMENT ( #76, #123, ( #59 ) ) ;
#30 = LOCAL_TIME ( 18, 53, 7.000000000000000000, #95 ) ;
#31 = ORIENTED_EDGE ( 'NONE', *, *, #82, .F. ) ;
#32 = CARTESIAN_POINT ( 'NONE',  ( 0.000000000000000000, 0.000000000000000000, 0.000000000000000000 ) ) ;
#33 = ORIENTED_EDGE ( 'NONE', *, *, #80, .F. ) ;
#34 = APPROVAL_PERSON_ORGANIZATION ( #78, #38, #41 ) ;
#35 = UNCERTAINTY_MEASURE_WITH_UNIT (LENGTH_MEASURE( 1.000000000000000082E-05 ), #5, 'distance_accuracy_value', 'NONE');
#36 = PERSON_AND_ORGANIZATION ( #118, #47 ) ;
#37 = APPROVAL_DATE_TIME ( #23, #103 ) ;
#38 = APPROVAL ( #7, 'UNSPECIFIED' ) ;
#39 = SECURITY_CLASSIFICATION ( '', '', #113 ) ;
#40 = SPHERICAL_SURFACE ( 'NONE', #105, 15.00000000000000000 ) ;
#41 = APPROVAL_ROLE ( '' ) ;
#42 = APPLICATION_PROTOCOL_DEFINITION ( 'international standard', 'config_control_design', 1994, #87 ) ;
#43 = MECHANICAL_CONTEXT ( 'NONE', #63, 'mechanical' ) ;
#44 = PERSON_AND_ORGANIZATION_ROLE ( 'design_supplier' ) ;
#45 = DESIGN_CONTEXT ( 'detailed design', #87, 'design' ) ;
#46 = COORDINATED_UNIVERSAL_TIME_OFFSET ( 5, 30, .AHEAD. ) ;
#47 = ORGANIZATION ( 'UNSPECIFIED', 'UNSPECIFIED', '' ) ;
#48 = PRODUCT_RELATED_PRODUCT_CATEGORY ( 'detail', '', ( #115 ) ) ;
#49 = CARTESIAN_POINT ( 'NONE',  ( 0.000000000000000000, 0.000000000000000000, 0.000000000000000000 ) ) ;
#50 =( NAMED_UNIT ( * ) PLANE_ANGLE_UNIT ( ) SI_UNIT ( $, .RADIAN. ) );
#51 = DIRECTION ( 'NONE',  ( 0.000000000000000000, 0.000000000000000000, -1.000000000000000000 ) ) ;
#52 = AXIS2_PLACEMENT_3D ( 'NONE', #92, #74, #106 ) ;
#53 = CC_DESIGN_APPROVAL ( #38, ( #69 ) ) ;
#54 = PERSON_AND_ORGANIZATION ( #118, #47 ) ;
#55 = DIRECTION ( 'NONE',  ( 0.000000000000000000, 0.000000000000000000, 1.000000000000000000 ) ) ;
#56 = PERSON_AND_ORGANIZATION_ROLE ( 'creator' ) ;
#57 = ADVANCED_FACE ( 'NONE', ( #64 ), #65, .T. ) ;
#58 = CC_DESIGN_PERSON_AND_ORGANIZATION_ASSIGNMENT ( #108, #44, ( #59 ) ) ;
#59 = PRODUCT_DEFINITION_FORMATION_WITH_SPECIFIED_SOURCE ( 'ANY', '', #115, .NOT_KNOWN. ) ;
#60 = CIRCLE ( 'NONE', #52, 15.00000000000000000 ) ;
#61 = CC_DESIGN_PERSON_AND_ORGANIZATION_ASSIGNMENT ( #36, #110, ( #39 ) ) ;
#62 = VERTEX_POINT ( 'NONE', #93 ) ;
#63 = APPLICATION_CONTEXT ( 'configuration controlled 3d designs of mechanical parts and assemblies' ) ;
#64 = FACE_OUTER_BOUND ( 'NONE', #21, .T. ) ;
#65 = SPHERICAL_SURFACE ( 'NONE', #124, 15.00000000000000000 ) ;
#66 = ADVANCED_FACE ( 'NONE', ( #6 ), #40, .T. ) ;
#67 = PERSON_AND_ORGANIZATION ( #118, #47 ) ;
#68 = CC_DESIGN_SECURITY_CLASSIFICATION ( #39, ( #59 ) ) ;
#69 = PRODUCT_DEFINITION ( 'UNKNOWN', '', #59, #45 ) ;
#70 = CALENDAR_DATE ( 2025, 14, 6 ) ;
#71 = LOCAL_TIME ( 18, 53, 7.000000000000000000, #46 ) ;
#72 = APPROVAL ( #88, 'UNSPECIFIED' ) ;
#73 = DIRECTION ( 'NONE',  ( 1.000000000000000000, 0.000000000000000000, 0.000000000000000000 ) ) ;
#74 = DIRECTION ( 'NONE',  ( 0.000000000000000000, 0.000000000000000000, 1.000000000000000000 ) ) ;
#75 = CALENDAR_DATE ( 2025, 14, 6 ) ;
#76 = PERSON_AND_ORGANIZATION ( #118, #47 ) ;
#77 = CALENDAR_DATE ( 2025, 14, 6 ) ;
#78 = PERSON_AND_ORGANIZATION ( #118, #47 ) ;
#79 = CC_DESIGN_APPROVAL ( #72, ( #39 ) ) ;
#80 = EDGE_CURVE ( 'NONE', #62, #117, #10, .T. ) ;
#81 = EDGE_LOOP ( 'NONE', ( #33, #2 ) ) ;
#82 = EDGE_CURVE ( 'NONE', #62, #117, #60, .T. ) ;
#83 = CC_DESIGN_PERSON_AND_ORGANIZATION_ASSIGNMENT ( #112, #18, ( #115 ) ) ;
#84 = SHAPE_DEFINITION_REPRESENTATION ( #97, #22 ) ;
#85 = CALENDAR_DATE ( 2025, 14, 6 ) ;
#86 = DATE_AND_TIME ( #111, #30 ) ;
#87 = APPLICATION_CONTEXT ( 'configuration controlled 3d designs of mechanical parts and assemblies' ) ;
#88 = APPROVAL_STATUS ( 'not_yet_approved' ) ;
#89 = DATE_TIME_ROLE ( 'creation_date' ) ;
#90 =( GEOMETRIC_REPRESENTATION_CONTEXT ( 3 ) GLOBAL_UNCERTAINTY_ASSIGNED_CONTEXT ( ( #35 ) ) GLOBAL_UNIT_ASSIGNED_CONTEXT ( ( #5, #50, #107 ) ) REPRESENTATION_CONTEXT ( 'NONE', 'WORKASPACE' ) );
#91 = APPROVAL_PERSON_ORGANIZATION ( #100, #103, #96 ) ;
#92 = CARTESIAN_POINT ( 'NONE',  ( 0.000000000000000000, 0.000000000000000000, 0.000000000000000000 ) ) ;
#93 = CARTESIAN_POINT ( 'NONE',  ( 9.184850993605147944E-16, -15.00000000000000000, 0.000000000000000000 ) ) ;
#94 = APPROVAL_DATE_TIME ( #99, #72 ) ;
#95 = COORDINATED_UNIVERSAL_TIME_OFFSET ( 5, 30, .AHEAD. ) ;
#96 = APPROVAL_ROLE ( '' ) ;
#97 = PRODUCT_DEFINITION_SHAPE ( 'NONE', 'NONE',  #69 ) ;
#98 = CARTESIAN_POINT ( 'NONE',  ( 9.184850993605147944E-16, 15.00000000000000000, 0.000000000000000000 ) ) ;
#99 = DATE_AND_TIME ( #77, #27 ) ;
#100 = PERSON_AND_ORGANIZATION ( #118, #47 ) ;
#101 = COORDINATED_UNIVERSAL_TIME_OFFSET ( 5, 30, .AHEAD. ) ;
#102 = LOCAL_TIME ( 18, 53, 7.000000000000000000, #16 ) ;
#103 = APPROVAL ( #8, 'UNSPECIFIED' ) ;
#104 = APPLICATION_PROTOCOL_DEFINITION ( 'international standard', 'config_control_design', 1994, #63 ) ;
#105 = AXIS2_PLACEMENT_3D ( 'NONE', #119, #51, #73 ) ;
#106 = DIRECTION ( 'NONE',  ( 1.000000000000000000, 0.000000000000000000, 0.000000000000000000 ) ) ;
#107 =( NAMED_UNIT ( * ) SI_UNIT ( $, .STERADIAN. ) SOLID_ANGLE_UNIT ( ) );
#108 = PERSON_AND_ORGANIZATION ( #118, #47 ) ;
#109 = CLOSED_SHELL ( 'NONE', ( #57, #66 ) ) ;
#110 = PERSON_AND_ORGANIZATION_ROLE ( 'classification_officer' ) ;
#111 = CALENDAR_DATE ( 2025, 14, 6 ) ;
#112 = PERSON_AND_ORGANIZATION ( #118, #47 ) ;
#113 = SECURITY_CLASSIFICATION_LEVEL ( 'unclassified' ) ;
#114 = CC_DESIGN_DATE_AND_TIME_ASSIGNMENT ( #86, #17, ( #39 ) ) ;
#115 = PRODUCT ( 'ball', 'ball', '', ( #43 ) ) ;
#116 = AXIS2_PLACEMENT_3D ( 'NONE', #25, #55, #121 ) ;
#117 = VERTEX_POINT ( 'NONE', #98 ) ;
#118 = PERSON ( 'UNSPECIFIED', 'UNSPECIFIED', 'UNSPECIFIED', ('UNSPECIFIED'), ('UNSPECIFIED'), ('UNSPECIFIED') ) ;
#119 = CARTESIAN_POINT ( 'NONE',  ( 0.000000000000000000, 0.000000000000000000, 0.000000000000000000 ) ) ;
#120 = DATE_AND_TIME ( #85, #71 ) ;
#121 = DIRECTION ( 'NONE',  ( 1.000000000000000000, 0.000000000000000000, 0.000000000000000000 ) ) ;
#122 = COORDINATED_UNIVERSAL_TIME_OFFSET ( 5, 30, .AHEAD. ) ;
#123 = PERSON_AND_ORGANIZATION_ROLE ( 'creator' ) ;
#124 = AXIS2_PLACEMENT_3D ( 'NONE', #32, #12, #13 ) ;
#125 = LOCAL_TIME ( 18, 53, 7.000000000000000000, #101 ) ;
ENDSEC;
END-ISO-10303-21;
