ISO-10303-21;
HEADER;
FILE_DESCRIPTION (( 'STEP AP203' ),
    '1' );
FILE_NAME ('Base.STEP',
    '2025-06-14T13:22:57',
    ( '' ),
    ( '' ),
    'SwSTEP 2.0',
    'SolidWorks 2023',
    '' );
FILE_SCHEMA (( 'CONFIG_CONTROL_DESIGN' ));
ENDSEC;

DATA;
#1 = LOCAL_TIME ( 18, 52, 57.00000000000000000, #97 ) ;
#2 = ORIENTED_EDGE ( 'NONE', *, *, #698, .T. ) ;
#3 = EDGE_CURVE ( 'NONE', #400, #303, #643, .T. ) ;
#4 = LINE ( 'NONE', #115, #731 ) ;
#5 = ORIENTED_EDGE ( 'NONE', *, *, #663, .T. ) ;
#6 = PLANE ( 'NONE',  #688 ) ;
#7 = EDGE_CURVE ( 'NONE', #76, #400, #414, .T. ) ;
#8 = FACE_OUTER_BOUND ( 'NONE', #706, .T. ) ;
#9 = DIRECTION ( 'NONE',  ( -0.8829709657859601268, -0.4694276020634159940, 0.000000000000000000 ) ) ;
#10 = ADVANCED_FACE ( 'NONE', ( #8 ), #356, .F. ) ;
#11 = DIRECTION ( 'NONE',  ( -0.000000000000000000, -0.000000000000000000, 1.000000000000000000 ) ) ;
#12 = VECTOR ( 'NONE', #47, 1000.000000000000000 ) ;
#13 = LINE ( 'NONE', #305, #411 ) ;
#14 = ORIENTED_EDGE ( 'NONE', *, *, #31, .T. ) ;
#15 = CARTESIAN_POINT ( 'NONE',  ( 49.39895155944171279, 60.05916334877479557, -109.9999999999999716 ) ) ;
#16 = ORIENTED_EDGE ( 'NONE', *, *, #3, .T. ) ;
#17 = ADVANCED_FACE ( 'NONE', ( #703 ), #181, .F. ) ;
#18 = CARTESIAN_POINT ( 'NONE',  ( 0.000000000000000000, 40.00000000000000000, 0.000000000000000000 ) ) ;
#19 = DIRECTION ( 'NONE',  ( -0.000000000000000000, -1.000000000000000000, -0.000000000000000000 ) ) ;
#20 = ORIENTED_EDGE ( 'NONE', *, *, #744, .T. ) ;
#21 = AXIS2_PLACEMENT_3D ( 'NONE', #106, #603, #341 ) ;
#22 = DIRECTION ( 'NONE',  ( 1.095614826932720348E-16, 0.000000000000000000, 1.000000000000000000 ) ) ;
#23 = PERSON_AND_ORGANIZATION ( #342, #186 ) ;
#24 = DIRECTION ( 'NONE',  ( -1.000000000000000000, -0.000000000000000000, -0.000000000000000000 ) ) ;
#25 = PLANE ( 'NONE',  #449 ) ;
#26 = EDGE_CURVE ( 'NONE', #400, #163, #127, .T. ) ;
#27 = DIRECTION ( 'NONE',  ( 1.000000000000000000, 0.000000000000000000, 0.000000000000000000 ) ) ;
#28 = DIRECTION ( 'NONE',  ( 0.000000000000000000, -1.000000000000000000, 0.000000000000000000 ) ) ;
#29 = ORIENTED_EDGE ( 'NONE', *, *, #246, .F. ) ;
#30 = PERSON_AND_ORGANIZATION ( #342, #186 ) ;
#31 = EDGE_CURVE ( 'NONE', #623, #93, #13, .T. ) ;
#32 = DIRECTION ( 'NONE',  ( 0.000000000000000000, -0.000000000000000000, -1.000000000000000000 ) ) ;
#33 = ORIENTED_EDGE ( 'NONE', *, *, #125, .F. ) ;
#34 = LINE ( 'NONE', #398, #391 ) ;
#35 = VECTOR ( 'NONE', #65, 1000.000000000000000 ) ;
#36 = APPROVAL_STATUS ( 'not_yet_approved' ) ;
#37 = AXIS2_PLACEMENT_3D ( 'NONE', #165, #269, #327 ) ;
#38 = DIRECTION ( 'NONE',  ( 0.000000000000000000, 0.000000000000000000, 1.000000000000000000 ) ) ;
#39 = CC_DESIGN_PERSON_AND_ORGANIZATION_ASSIGNMENT ( #442, #670, ( #711 ) ) ;
#40 = ORIENTED_EDGE ( 'NONE', *, *, #681, .F. ) ;
#41 = LINE ( 'NONE', #683, #117 ) ;
#42 = DIRECTION ( 'NONE',  ( -1.000000000000000000, -0.000000000000000000, -0.000000000000000000 ) ) ;
#43 = DIRECTION ( 'NONE',  ( 0.000000000000000000, -0.000000000000000000, -1.000000000000000000 ) ) ;
#44 = VERTEX_POINT ( 'NONE', #524 ) ;
#45 = ADVANCED_FACE ( 'NONE', ( #365 ), #244, .F. ) ;
#46 = DIRECTION ( 'NONE',  ( -0.000000000000000000, 1.000000000000000000, -0.000000000000000000 ) ) ;
#47 = DIRECTION ( 'NONE',  ( -1.000000000000000000, -0.000000000000000000, -0.000000000000000000 ) ) ;
#48 = VERTEX_POINT ( 'NONE', #582 ) ;
#49 = EDGE_CURVE ( 'NONE', #48, #79, #70, .T. ) ;
#50 = DIRECTION ( 'NONE',  ( -1.000000000000000000, 0.000000000000000000, -0.000000000000000000 ) ) ;
#51 = VECTOR ( 'NONE', #544, 1000.000000000000000 ) ;
#52 = ORIENTED_EDGE ( 'NONE', *, *, #652, .T. ) ;
#53 = LINE ( 'NONE', #223, #233 ) ;
#54 = ORIENTED_EDGE ( 'NONE', *, *, #577, .F. ) ;
#55 = DIRECTION ( 'NONE',  ( -0.000000000000000000, 1.000000000000000000, -0.000000000000000000 ) ) ;
#56 = EDGE_CURVE ( 'NONE', #594, #543, #245, .T. ) ;
#57 = VERTEX_POINT ( 'NONE', #705 ) ;
#58 = CARTESIAN_POINT ( 'NONE',  ( 195.0000000000000000, 4.999999999999997335, -195.0000000000000000 ) ) ;
#59 = EDGE_CURVE ( 'NONE', #163, #199, #476, .T. ) ;
#60 = VERTEX_POINT ( 'NONE', #590 ) ;
#61 = PRODUCT ( 'Base', 'Base', '', ( #328 ) ) ;
#62 = VECTOR ( 'NONE', #95, 1000.000000000000000 ) ;
#63 = DIRECTION ( 'NONE',  ( -1.460819769243627131E-16, -0.000000000000000000, -1.000000000000000000 ) ) ;
#64 = VERTEX_POINT ( 'NONE', #78 ) ;
#65 = DIRECTION ( 'NONE',  ( -1.000000000000000000, -0.000000000000000000, -0.000000000000000000 ) ) ;
#66 = DIRECTION ( 'NONE',  ( 1.000000000000000000, 0.000000000000000000, -4.565061778886334783E-18 ) ) ;
#67 = CARTESIAN_POINT ( 'NONE',  ( 0.000000000000000000, 40.00000000000000000, -200.0000000000000000 ) ) ;
#68 = AXIS2_PLACEMENT_3D ( 'NONE', #88, #323, #27 ) ;
#69 = EDGE_CURVE ( 'NONE', #405, #546, #253, .T. ) ;
#70 = LINE ( 'NONE', #133, #87 ) ;
#71 = ORIENTED_EDGE ( 'NONE', *, *, #202, .T. ) ;
#72 = VECTOR ( 'NONE', #46, 1000.000000000000000 ) ;
#73 = DIRECTION ( 'NONE',  ( 1.000000000000000000, 0.000000000000000000, -1.460819769243627131E-16 ) ) ;
#74 = ADVANCED_FACE ( 'NONE', ( #438 ), #82, .F. ) ;
#75 = CARTESIAN_POINT ( 'NONE',  ( 0.000000000000000000, 0.000000000000000000, -109.9999999999999716 ) ) ;
#76 = VERTEX_POINT ( 'NONE', #215 ) ;
#77 = CARTESIAN_POINT ( 'NONE',  ( 49.39895155944171279, 60.05916334877479557, -195.0000000000000000 ) ) ;
#78 = CARTESIAN_POINT ( 'NONE',  ( 0.000000000000000000, 0.000000000000000000, 0.000000000000000000 ) ) ;
#79 = VERTEX_POINT ( 'NONE', #260 ) ;
#80 = CARTESIAN_POINT ( 'NONE',  ( 100.0000000000000000, 19.99999999999934275, -195.0000000000000000 ) ) ;
#81 = APPROVAL_STATUS ( 'not_yet_approved' ) ;
#82 = PLANE ( 'NONE',  #130 ) ;
#83 = ORIENTED_EDGE ( 'NONE', *, *, #289, .T. ) ;
#84 = ADVANCED_FACE ( 'NONE', ( #656 ), #376, .F. ) ;
#85 = VECTOR ( 'NONE', #475, 1000.000000000000000 ) ;
#86 = DIRECTION ( 'NONE',  ( -0.000000000000000000, 1.000000000000000000, -0.000000000000000000 ) ) ;
#87 = VECTOR ( 'NONE', #308, 1000.000000000000000 ) ;
#88 = CARTESIAN_POINT ( 'NONE',  ( 0.000000000000000000, 0.000000000000000000, 0.000000000000000000 ) ) ;
#89 = DIRECTION ( 'NONE',  ( -1.000000000000000000, -0.000000000000000000, -0.000000000000000000 ) ) ;
#90 = EDGE_LOOP ( 'NONE', ( #185, #216, #605, #134, #658, #112 ) ) ;
#91 = DIRECTION ( 'NONE',  ( -0.000000000000000000, -0.000000000000000000, -1.000000000000000000 ) ) ;
#92 = LINE ( 'NONE', #601, #746 ) ;
#93 = VERTEX_POINT ( 'NONE', #726 ) ;
#94 = LINE ( 'NONE', #382, #168 ) ;
#95 = DIRECTION ( 'NONE',  ( 1.000000000000000000, 0.000000000000000000, -4.565061778886334783E-18 ) ) ;
#96 = DIRECTION ( 'NONE',  ( -1.000000000000000000, -0.000000000000000000, -0.000000000000000000 ) ) ;
#97 = COORDINATED_UNIVERSAL_TIME_OFFSET ( 5, 30, .AHEAD. ) ;
#98 = VECTOR ( 'NONE', #179, 1000.000000000000000 ) ;
#99 = DIRECTION ( 'NONE',  ( 0.000000000000000000, -1.000000000000000000, 0.000000000000000000 ) ) ;
#100 = EDGE_CURVE ( 'NONE', #57, #433, #312, .T. ) ;
#101 = VERTEX_POINT ( 'NONE', #447 ) ;
#102 = LINE ( 'NONE', #105, #634 ) ;
#103 = DIRECTION ( 'NONE',  ( 0.000000000000000000, -1.000000000000000000, 0.000000000000000000 ) ) ;
#104 = ORIENTED_EDGE ( 'NONE', *, *, #725, .F. ) ;
#105 = CARTESIAN_POINT ( 'NONE',  ( 200.0000000000000000, 40.00000000000000000, -200.0000000000000000 ) ) ;
#106 = CARTESIAN_POINT ( 'NONE',  ( 0.000000000000000000, 40.00000000000000000, 0.000000000000000000 ) ) ;
#107 = ORIENTED_EDGE ( 'NONE', *, *, #174, .F. ) ;
#108 = PLANE ( 'NONE',  #364 ) ;
#109 = ORIENTED_EDGE ( 'NONE', *, *, #136, .F. ) ;
#110 = DIRECTION ( 'NONE',  ( -1.000000000000000000, -0.000000000000000000, -0.000000000000000000 ) ) ;
#111 = EDGE_CURVE ( 'NONE', #543, #64, #604, .T. ) ;
#112 = ORIENTED_EDGE ( 'NONE', *, *, #69, .F. ) ;
#113 = DIRECTION ( 'NONE',  ( -0.000000000000000000, -0.000000000000000000, -1.000000000000000000 ) ) ;
#114 = ORIENTED_EDGE ( 'NONE', *, *, #56, .F. ) ;
#115 = CARTESIAN_POINT ( 'NONE',  ( 0.000000000000000000, 91.03608723385997337, -109.9999999999999716 ) ) ;
#116 = LOCAL_TIME ( 18, 52, 57.00000000000000000, #485 ) ;
#117 = VECTOR ( 'NONE', #748, 1000.000000000000000 ) ;
#118 = ORIENTED_EDGE ( 'NONE', *, *, #49, .T. ) ;
#119 = ADVANCED_FACE ( 'NONE', ( #720 ), #371, .F. ) ;
#120 = VECTOR ( 'NONE', #265, 1000.000000000000000 ) ;
#121 = DIRECTION ( 'NONE',  ( -0.000000000000000000, -0.000000000000000000, -1.000000000000000000 ) ) ;
#122 = ORIENTED_EDGE ( 'NONE', *, *, #420, .F. ) ;
#123 = DIRECTION ( 'NONE',  ( 0.000000000000000000, 0.000000000000000000, -1.000000000000000000 ) ) ;
#124 = DIRECTION ( 'NONE',  ( 0.000000000000000000, -1.000000000000000000, 0.000000000000000000 ) ) ;
#125 = EDGE_CURVE ( 'NONE', #60, #474, #671, .T. ) ;
#126 = DIRECTION ( 'NONE',  ( -0.000000000000000000, 1.000000000000000000, 0.000000000000000000 ) ) ;
#127 = LINE ( 'NONE', #423, #98 ) ;
#128 = ORIENTED_EDGE ( 'NONE', *, *, #56, .T. ) ;
#129 = VECTOR ( 'NONE', #410, 1000.000000000000000 ) ;
#130 = AXIS2_PLACEMENT_3D ( 'NONE', #675, #262, #141 ) ;
#131 = CARTESIAN_POINT ( 'NONE',  ( 100.0000000000000000, 4.999999999999997335, 0.000000000000000000 ) ) ;
#132 = ADVANCED_FACE ( 'NONE', ( #146 ), #198, .F. ) ;
#133 = CARTESIAN_POINT ( 'NONE',  ( 200.0000000000000000, 40.00000000000000000, 0.000000000000000000 ) ) ;
#134 = ORIENTED_EDGE ( 'NONE', *, *, #125, .T. ) ;
#135 = CARTESIAN_POINT ( 'NONE',  ( 49.39895155944171279, 60.05916334877479557, -195.0000000000000000 ) ) ;
#136 = EDGE_CURVE ( 'NONE', #359, #543, #431, .T. ) ;
#137 = ORIENTED_EDGE ( 'NONE', *, *, #685, .T. ) ;
#138 = ORIENTED_EDGE ( 'NONE', *, *, #698, .F. ) ;
#139 = LINE ( 'NONE', #367, #291 ) ;
#140 = APPROVAL_DATE_TIME ( #497, #304 ) ;
#141 = DIRECTION ( 'NONE',  ( 1.095614826932720348E-16, 0.000000000000000000, 1.000000000000000000 ) ) ;
#142 = ORIENTED_EDGE ( 'NONE', *, *, #641, .T. ) ;
#143 = VECTOR ( 'NONE', #110, 1000.000000000000000 ) ;
#144 = CARTESIAN_POINT ( 'NONE',  ( 17.93547913165868835, 91.03608723385997337, -109.9999999999999716 ) ) ;
#145 =( NAMED_UNIT ( * ) PLANE_ANGLE_UNIT ( ) SI_UNIT ( $, .RADIAN. ) );
#146 = FACE_OUTER_BOUND ( 'NONE', #90, .T. ) ;
#147 = EDGE_LOOP ( 'NONE', ( #678, #138, #166, #247 ) ) ;
#148 = PLANE ( 'NONE',  #463 ) ;
#149 = CALENDAR_DATE ( 2025, 14, 6 ) ;
#150 = CARTESIAN_POINT ( 'NONE',  ( 30.09919269910079365, 60.05916334877479557, -109.9999999999999716 ) ) ;
#151 = DIRECTION ( 'NONE',  ( -0.4694276020634159940, 0.8829709657859601268, -0.000000000000000000 ) ) ;
#152 = CARTESIAN_POINT ( 'NONE',  ( 0.000000000000000000, 0.000000000000000000, 0.000000000000000000 ) ) ;
#153 = EDGE_CURVE ( 'NONE', #236, #405, #556, .T. ) ;
#154 = PERSON_AND_ORGANIZATION ( #342, #186 ) ;
#155 = DIRECTION ( 'NONE',  ( 0.000000000000000000, 0.000000000000000000, -1.000000000000000000 ) ) ;
#156 = DIRECTION ( 'NONE',  ( -1.000000000000000000, 0.000000000000000000, 0.000000000000000000 ) ) ;
#157 = FACE_OUTER_BOUND ( 'NONE', #347, .T. ) ;
#158 = VECTOR ( 'NONE', #664, 1000.000000000000000 ) ;
#159 = AXIS2_PLACEMENT_3D ( 'NONE', #598, #487, #38 ) ;
#160 = ORIENTED_EDGE ( 'NONE', *, *, #395, .T. ) ;
#161 = LINE ( 'NONE', #456, #575 ) ;
#162 = ADVANCED_FACE ( 'NONE', ( #201 ), #550, .F. ) ;
#163 = VERTEX_POINT ( 'NONE', #318 ) ;
#164 = FACE_OUTER_BOUND ( 'NONE', #529, .T. ) ;
#165 = CARTESIAN_POINT ( 'NONE',  ( 56.21063115720917125, 47.24671839106917304, -109.9999999999999716 ) ) ;
#166 = ORIENTED_EDGE ( 'NONE', *, *, #663, .F. ) ;
#167 = CARTESIAN_POINT ( 'NONE',  ( 73.72637869432548996, 47.24671839106917304, -195.0000000000000000 ) ) ;
#168 = VECTOR ( 'NONE', #506, 1000.000000000000000 ) ;
#169 = EDGE_LOOP ( 'NONE', ( #754, #16, #338, #142, #203, #254, #298, #33, #527, #515, #715 ) ) ;
#170 = CARTESIAN_POINT ( 'NONE',  ( 0.000000000000000000, 91.03608723385997337, -109.9999999999999716 ) ) ;
#171 = EDGE_CURVE ( 'NONE', #546, #474, #542, .T. ) ;
#172 = EDGE_LOOP ( 'NONE', ( #104, #578, #109, #689 ) ) ;
#173 = FACE_OUTER_BOUND ( 'NONE', #332, .T. ) ;
#174 = EDGE_CURVE ( 'NONE', #477, #474, #92, .T. ) ;
#175 = VERTEX_POINT ( 'NONE', #492 ) ;
#176 = CARTESIAN_POINT ( 'NONE',  ( 0.000000000000000000, 0.000000000000000000, 0.000000000000000000 ) ) ;
#177 = EDGE_CURVE ( 'NONE', #588, #191, #732, .T. ) ;
#178 = VECTOR ( 'NONE', #55, 1000.000000000000000 ) ;
#179 = DIRECTION ( 'NONE',  ( 1.000000000000000000, 0.000000000000000000, 0.000000000000000000 ) ) ;
#180 = CARTESIAN_POINT ( 'NONE',  ( 5.000000000000018652, 4.999999999999997335, -5.000000000000000000 ) ) ;
#181 = PLANE ( 'NONE',  #714 ) ;
#182 = LINE ( 'NONE', #316, #232 ) ;
#183 = APPLICATION_CONTEXT ( 'configuration controlled 3d designs of mechanical parts and assemblies' ) ;
#184 = EDGE_LOOP ( 'NONE', ( #710, #40, #377, #454 ) ) ;
#185 = ORIENTED_EDGE ( 'NONE', *, *, #511, .F. ) ;
#186 = ORGANIZATION ( 'UNSPECIFIED', 'UNSPECIFIED', '' ) ;
#187 = DIRECTION ( 'NONE',  ( -1.460819769243627131E-16, 0.000000000000000000, -1.000000000000000000 ) ) ;
#188 = APPROVAL_PERSON_ORGANIZATION ( #317, #304, #270 ) ;
#189 = MANIFOLD_SOLID_BREP ( 'Boss-Extrude2', #314 ) ;
#190 = DIRECTION ( 'NONE',  ( -1.000000000000000000, 0.000000000000000000, 0.000000000000000000 ) ) ;
#191 = VERTEX_POINT ( 'NONE', #331 ) ;
#192 = VECTOR ( 'NONE', #19, 1000.000000000000000 ) ;
#193 = LINE ( 'NONE', #135, #378 ) ;
#194 = LOCAL_TIME ( 18, 52, 57.00000000000000000, #300 ) ;
#195 = ORIENTED_EDGE ( 'NONE', *, *, #452, .F. ) ;
#196 = CARTESIAN_POINT ( 'NONE',  ( 0.000000000000000000, 0.000000000000000000, -200.0000000000000000 ) ) ;
#197 = CALENDAR_DATE ( 2025, 14, 6 ) ;
#198 = PLANE ( 'NONE',  #334 ) ;
#199 = VERTEX_POINT ( 'NONE', #271 ) ;
#200 = CARTESIAN_POINT ( 'NONE',  ( 56.21063115720917125, 47.24671839106917304, -195.0000000000000000 ) ) ;
#201 = FACE_OUTER_BOUND ( 'NONE', #250, .T. ) ;
#202 = EDGE_CURVE ( 'NONE', #696, #207, #503, .T. ) ;
#203 = ORIENTED_EDGE ( 'NONE', *, *, #692, .T. ) ;
#204 = PLANE ( 'NONE',  #676 ) ;
#205 = APPROVAL_ROLE ( '' ) ;
#206 = DIRECTION ( 'NONE',  ( -0.000000000000000000, -0.000000000000000000, -1.000000000000000000 ) ) ;
#207 = VERTEX_POINT ( 'NONE', #210 ) ;
#208 = CARTESIAN_POINT ( 'NONE',  ( 195.0000000000000000, 4.999999999999997335, -195.0000000000000000 ) ) ;
#209 = COORDINATED_UNIVERSAL_TIME_OFFSET ( 5, 30, .AHEAD. ) ;
#210 = CARTESIAN_POINT ( 'NONE',  ( 56.21063115720917125, 47.24671839106917304, -109.9999999999999716 ) ) ;
#211 = VERTEX_POINT ( 'NONE', #443 ) ;
#212 = CARTESIAN_POINT ( 'NONE',  ( 17.93547913165868835, 72.22287691621650652, -109.9999999999999716 ) ) ;
#213 = DIRECTION ( 'NONE',  ( -0.000000000000000000, 1.000000000000000000, -0.000000000000000000 ) ) ;
#214 = DATE_TIME_ROLE ( 'classification_date' ) ;
#215 = CARTESIAN_POINT ( 'NONE',  ( 0.000000000000000000, 91.03608723385997337, -109.9999999999999716 ) ) ;
#216 = ORIENTED_EDGE ( 'NONE', *, *, #294, .F. ) ;
#217 = CARTESIAN_POINT ( 'NONE',  ( 17.93547913165868835, 72.22287691621650652, -109.9999999999999716 ) ) ;
#218 = DIRECTION ( 'NONE',  ( 0.000000000000000000, 0.000000000000000000, -1.000000000000000000 ) ) ;
#219 = AXIS2_PLACEMENT_3D ( 'NONE', #287, #156, #738 ) ;
#220 = VECTOR ( 'NONE', #89, 1000.000000000000000 ) ;
#221 = ORIENTED_EDGE ( 'NONE', *, *, #340, .T. ) ;
#222 = CARTESIAN_POINT ( 'NONE',  ( 195.0000000000000284, 4.999999999999997335, -5.000000000000000888 ) ) ;
#223 = CARTESIAN_POINT ( 'NONE',  ( 30.09919269910079365, 60.05916334877479557, -195.0000000000000000 ) ) ;
#224 = ADVANCED_FACE ( 'NONE', ( #538 ), #108, .T. ) ;
#225 = ORIENTED_EDGE ( 'NONE', *, *, #202, .F. ) ;
#226 = FACE_OUTER_BOUND ( 'NONE', #734, .T. ) ;
#227 = APPLICATION_CONTEXT ( 'configuration controlled 3d designs of mechanical parts and assemblies' ) ;
#228 = ORIENTED_EDGE ( 'NONE', *, *, #652, .F. ) ;
#229 = ADVANCED_FACE ( 'NONE', ( #157 ), #617, .F. ) ;
#230 = ORIENTED_EDGE ( 'NONE', *, *, #322, .T. ) ;
#231 = PLANE ( 'NONE',  #536 ) ;
#232 = VECTOR ( 'NONE', #311, 1000.000000000000000 ) ;
#233 = VECTOR ( 'NONE', #559, 1000.000000000000000 ) ;
#234 = EDGE_LOOP ( 'NONE', ( #107, #313, #539, #418, #662, #29, #570, #343, #263 ) ) ;
#235 = CARTESIAN_POINT ( 'NONE',  ( 17.93547913165868835, 72.22287691621650652, -109.9999999999999716 ) ) ;
#236 = VERTEX_POINT ( 'NONE', #496 ) ;
#237 = DIRECTION ( 'NONE',  ( -0.000000000000000000, 1.000000000000000000, -0.000000000000000000 ) ) ;
#238 = DATE_AND_TIME ( #416, #194 ) ;
#239 = ORIENTED_EDGE ( 'NONE', *, *, #329, .F. ) ;
#240 = CARTESIAN_POINT ( 'NONE',  ( 200.0000000000000000, 40.00000000000000000, 0.000000000000000000 ) ) ;
#241 = DIRECTION ( 'NONE',  ( -0.000000000000000000, -0.000000000000000000, -1.000000000000000000 ) ) ;
#242 = ADVANCED_FACE ( 'NONE', ( #274 ), #148, .F. ) ;
#243 = AXIS2_PLACEMENT_3D ( 'NONE', #571, #697, #290 ) ;
#244 = PLANE ( 'NONE',  #518 ) ;
#245 = LINE ( 'NONE', #368, #192 ) ;
#246 = EDGE_CURVE ( 'NONE', #482, #433, #53, .T. ) ;
#247 = ORIENTED_EDGE ( 'NONE', *, *, #153, .T. ) ;
#248 = CARTESIAN_POINT ( 'NONE',  ( 17.93547913165868835, 91.03608723385997337, -195.0000000000000000 ) ) ;
#249 = CARTESIAN_POINT ( 'NONE',  ( 0.000000000000000000, 40.00000000000000000, 0.000000000000000000 ) ) ;
#250 = EDGE_LOOP ( 'NONE', ( #419, #373, #499, #221 ) ) ;
#251 = EDGE_CURVE ( 'NONE', #752, #563, #547, .T. ) ;
#252 = LINE ( 'NONE', #713, #51 ) ;
#253 = LINE ( 'NONE', #481, #677 ) ;
#254 = ORIENTED_EDGE ( 'NONE', *, *, #540, .T. ) ;
#255 = VECTOR ( 'NONE', #213, 1000.000000000000000 ) ;
#256 = VECTOR ( 'NONE', #587, 1000.000000000000000 ) ;
#257 = ADVANCED_FACE ( 'NONE', ( #451 ), #394, .F. ) ;
#258 = CARTESIAN_POINT ( 'NONE',  ( 200.0000000000000000, 0.000000000000000000, 0.000000000000000000 ) ) ;
#259 =( LENGTH_UNIT ( ) NAMED_UNIT ( * ) SI_UNIT ( .MILLI., .METRE. ) );
#260 = CARTESIAN_POINT ( 'NONE',  ( 200.0000000000000000, 0.000000000000000000, 0.000000000000000000 ) ) ;
#261 = EDGE_LOOP ( 'NONE', ( #716, #407, #504, #512 ) ) ;
#262 = DIRECTION ( 'NONE',  ( -1.000000000000000000, 0.000000000000000000, 1.095614826932720348E-16 ) ) ;
#263 = ORIENTED_EDGE ( 'NONE', *, *, #645, .F. ) ;
#264 = CARTESIAN_POINT ( 'NONE',  ( 0.000000000000000000, 40.00000000000000000, -109.9999999999999716 ) ) ;
#265 = DIRECTION ( 'NONE',  ( -0.000000000000000000, -0.000000000000000000, -1.000000000000000000 ) ) ;
#266 = ORIENTED_EDGE ( 'NONE', *, *, #315, .F. ) ;
#267 = AXIS2_PLACEMENT_3D ( 'NONE', #753, #455, #500 ) ;
#268 = VECTOR ( 'NONE', #661, 1000.000000000000000 ) ;
#269 = DIRECTION ( 'NONE',  ( 0.000000000000000000, -1.000000000000000000, 0.000000000000000000 ) ) ;
#270 = APPROVAL_ROLE ( '' ) ;
#271 = CARTESIAN_POINT ( 'NONE',  ( 5.000000000000007105, 4.999999999999997335, -109.9999999999999716 ) ) ;
#272 = ORIENTED_EDGE ( 'NONE', *, *, #372, .F. ) ;
#273 = LINE ( 'NONE', #687, #282 ) ;
#274 = FACE_OUTER_BOUND ( 'NONE', #682, .T. ) ;
#275 = APPROVAL_DATE_TIME ( #665, #637 ) ;
#276 = DIRECTION ( 'NONE',  ( -1.000000000000000000, -0.000000000000000000, -0.000000000000000000 ) ) ;
#277 = EDGE_CURVE ( 'NONE', #302, #472, #94, .T. ) ;
#278 = DIRECTION ( 'NONE',  ( -0.000000000000000000, 1.000000000000000000, -0.000000000000000000 ) ) ;
#279 = LINE ( 'NONE', #510, #158 ) ;
#280 = VERTEX_POINT ( 'NONE', #335 ) ;
#281 = CARTESIAN_POINT ( 'NONE',  ( 17.93547913165868835, 72.22287691621650652, -109.9999999999999716 ) ) ;
#282 = VECTOR ( 'NONE', #616, 1000.000000000000000 ) ;
#283 = EDGE_LOOP ( 'NONE', ( #632, #409, #366, #424 ) ) ;
#284 = PLANE ( 'NONE',  #267 ) ;
#285 = EDGE_CURVE ( 'NONE', #472, #44, #386, .T. ) ;
#286 = ORIENTED_EDGE ( 'NONE', *, *, #315, .T. ) ;
#287 = CARTESIAN_POINT ( 'NONE',  ( 17.93547913165868835, 91.03608723385997337, -109.9999999999999716 ) ) ;
#288 = ORIENTED_EDGE ( 'NONE', *, *, #530, .F. ) ;
#289 = EDGE_CURVE ( 'NONE', #396, #57, #161, .T. ) ;
#290 = DIRECTION ( 'NONE',  ( 0.000000000000000000, 0.000000000000000000, -1.000000000000000000 ) ) ;
#291 = VECTOR ( 'NONE', #708, 1000.000000000000000 ) ;
#292 = VECTOR ( 'NONE', #11, 1000.000000000000000 ) ;
#293 = ORIENTED_EDGE ( 'NONE', *, *, #59, .T. ) ;
#294 = EDGE_CURVE ( 'NONE', #653, #211, #34, .T. ) ;
#295 = FACE_OUTER_BOUND ( 'NONE', #319, .T. ) ;
#296 = ORIENTED_EDGE ( 'NONE', *, *, #310, .T. ) ;
#297 = CARTESIAN_POINT ( 'NONE',  ( 73.72637869432548996, 19.99999999999934275, -109.9999999999999716 ) ) ;
#298 = ORIENTED_EDGE ( 'NONE', *, *, #174, .T. ) ;
#299 = CARTESIAN_POINT ( 'NONE',  ( 73.72637869432548996, 47.24671839106917304, -109.9999999999999716 ) ) ;
#300 = COORDINATED_UNIVERSAL_TIME_OFFSET ( 5, 30, .AHEAD. ) ;
#301 = VECTOR ( 'NONE', #86, 1000.000000000000000 ) ;
#302 = VERTEX_POINT ( 'NONE', #554 ) ;
#303 = VERTEX_POINT ( 'NONE', #612 ) ;
#304 = APPROVAL ( #36, 'UNSPECIFIED' ) ;
#305 = CARTESIAN_POINT ( 'NONE',  ( 5.000000000000018652, 40.00000000000000000, -5.000000000000000000 ) ) ;
#306 = VERTEX_POINT ( 'NONE', #739 ) ;
#307 = DIRECTION ( 'NONE',  ( 0.000000000000000000, 0.000000000000000000, -1.000000000000000000 ) ) ;
#308 = DIRECTION ( 'NONE',  ( -0.000000000000000000, -1.000000000000000000, -0.000000000000000000 ) ) ;
#309 = ORIENTED_EDGE ( 'NONE', *, *, #641, .F. ) ;
#310 = EDGE_CURVE ( 'NONE', #44, #477, #684, .T. ) ;
#311 = DIRECTION ( 'NONE',  ( -1.000000000000000000, 0.000000000000000000, 0.000000000000000000 ) ) ;
#312 = LINE ( 'NONE', #324, #610 ) ;
#313 = ORIENTED_EDGE ( 'NONE', *, *, #310, .F. ) ;
#314 = CLOSED_SHELL ( 'NONE', ( #257, #74, #132, #387, #668, #755, #10, #557, #224, #446, #751, #242, #573, #84, #45, #17, #229, #699, #162, #580, #631, #119 ) ) ;
#315 = EDGE_CURVE ( 'NONE', #191, #653, #401, .T. ) ;
#316 = CARTESIAN_POINT ( 'NONE',  ( 0.000000000000000000, 4.999999999999997335, -109.9999999999999716 ) ) ;
#317 = PERSON_AND_ORGANIZATION ( #342, #186 ) ;
#318 = CARTESIAN_POINT ( 'NONE',  ( 5.000000000000007105, 40.00000000000000000, -109.9999999999999716 ) ) ;
#319 = EDGE_LOOP ( 'NONE', ( #667, #457, #122, #412 ) ) ;
#320 = EDGE_LOOP ( 'NONE', ( #615, #427, #747, #533, #728, #296, #448, #128 ) ) ;
#321 = LINE ( 'NONE', #222, #178 ) ;
#322 = EDGE_CURVE ( 'NONE', #618, #306, #562, .T. ) ;
#323 = DIRECTION ( 'NONE',  ( 0.000000000000000000, 0.000000000000000000, 1.000000000000000000 ) ) ;
#324 = CARTESIAN_POINT ( 'NONE',  ( 30.09919269910079365, 60.05916334877479557, -109.9999999999999716 ) ) ;
#325 = ORIENTED_EDGE ( 'NONE', *, *, #692, .F. ) ;
#326 = AXIS2_PLACEMENT_3D ( 'NONE', #180, #628, #408 ) ;
#327 = DIRECTION ( 'NONE',  ( 0.000000000000000000, -0.000000000000000000, -1.000000000000000000 ) ) ;
#328 = MECHANICAL_CONTEXT ( 'NONE', #183, 'mechanical' ) ;
#329 = EDGE_CURVE ( 'NONE', #57, #618, #441, .T. ) ;
#330 = LOCAL_TIME ( 18, 52, 57.00000000000000000, #209 ) ;
#331 = CARTESIAN_POINT ( 'NONE',  ( 195.0000000000000284, 4.999999999999997335, -5.000000000000000888 ) ) ;
#332 = EDGE_LOOP ( 'NONE', ( #14, #428, #568, #722 ) ) ;
#333 = VECTOR ( 'NONE', #465, 1000.000000000000000 ) ;
#334 = AXIS2_PLACEMENT_3D ( 'NONE', #489, #155, #498 ) ;
#335 = CARTESIAN_POINT ( 'NONE',  ( 100.0000000000000000, 4.999999999999997335, -109.9999999999999716 ) ) ;
#336 = CALENDAR_DATE ( 2025, 14, 6 ) ;
#337 = CARTESIAN_POINT ( 'NONE',  ( 0.000000000000000000, 0.000000000000000000, 0.000000000000000000 ) ) ;
#338 = ORIENTED_EDGE ( 'NONE', *, *, #420, .T. ) ;
#339 = CARTESIAN_POINT ( 'NONE',  ( 200.0000000000000000, 0.000000000000000000, -200.0000000000000000 ) ) ;
#340 = EDGE_CURVE ( 'NONE', #396, #482, #279, .T. ) ;
#341 = DIRECTION ( 'NONE',  ( 0.000000000000000000, -0.000000000000000000, -1.000000000000000000 ) ) ;
#342 = PERSON ( 'UNSPECIFIED', 'UNSPECIFIED', 'UNSPECIFIED', ('UNSPECIFIED'), ('UNSPECIFIED'), ('UNSPECIFIED') ) ;
#343 = ORIENTED_EDGE ( 'NONE', *, *, #251, .F. ) ;
#344 = CARTESIAN_POINT ( 'NONE',  ( 0.000000000000000000, 40.00000000000000000, -200.0000000000000000 ) ) ;
#345 = CARTESIAN_POINT ( 'NONE',  ( 17.93547913165868835, 91.03608723385997337, -109.9999999999999716 ) ) ;
#346 = DESIGN_CONTEXT ( 'detailed design', #227, 'design' ) ;
#347 = EDGE_LOOP ( 'NONE', ( #519, #272, #225, #521 ) ) ;
#348 = PLANE ( 'NONE',  #243 ) ;
#349 = ORIENTED_EDGE ( 'NONE', *, *, #136, .T. ) ;
#350 = FACE_OUTER_BOUND ( 'NONE', #261, .T. ) ;
#351 = EDGE_LOOP ( 'NONE', ( #385, #513, #721, #228, #2 ) ) ;
#352 = LINE ( 'NONE', #297, #462 ) ;
#353 = VECTOR ( 'NONE', #709, 1000.000000000000000 ) ;
#354 = PRODUCT_RELATED_PRODUCT_CATEGORY ( 'detail', '', ( #61 ) ) ;
#355 = ORIENTED_EDGE ( 'NONE', *, *, #59, .F. ) ;
#356 = PLANE ( 'NONE',  #552 ) ;
#357 = DIRECTION ( 'NONE',  ( -1.000000000000000000, 0.000000000000000000, -0.000000000000000000 ) ) ;
#358 = DIRECTION ( 'NONE',  ( 0.000000000000000000, -0.000000000000000000, -1.000000000000000000 ) ) ;
#359 = VERTEX_POINT ( 'NONE', #339 ) ;
#360 = CC_DESIGN_PERSON_AND_ORGANIZATION_ASSIGNMENT ( #30, #380, ( #61 ) ) ;
#361 = SHAPE_DEFINITION_REPRESENTATION ( #695, #717 ) ;
#362 = LINE ( 'NONE', #18, #363 ) ;
#363 = VECTOR ( 'NONE', #429, 1000.000000000000000 ) ;
#364 = AXIS2_PLACEMENT_3D ( 'NONE', #152, #103, #566 ) ;
#365 = FACE_OUTER_BOUND ( 'NONE', #147, .T. ) ;
#366 = ORIENTED_EDGE ( 'NONE', *, *, #153, .F. ) ;
#367 = CARTESIAN_POINT ( 'NONE',  ( 73.72637869432548996, 47.24671839106917304, -109.9999999999999716 ) ) ;
#368 = CARTESIAN_POINT ( 'NONE',  ( 0.000000000000000000, 40.00000000000000000, -200.0000000000000000 ) ) ;
#369 = ORIENTED_EDGE ( 'NONE', *, *, #727, .T. ) ;
#370 = DIRECTION ( 'NONE',  ( -0.4694276020634159940, 0.8829709657859601268, -0.000000000000000000 ) ) ;
#371 = PLANE ( 'NONE',  #393 ) ;
#372 = EDGE_CURVE ( 'NONE', #207, #563, #607, .T. ) ;
#373 = ORIENTED_EDGE ( 'NONE', *, *, #100, .F. ) ;
#374 = DIRECTION ( 'NONE',  ( -0.000000000000000000, -1.000000000000000000, -0.000000000000000000 ) ) ;
#375 = APPROVAL_STATUS ( 'not_yet_approved' ) ;
#376 = PLANE ( 'NONE',  #159 ) ;
#377 = ORIENTED_EDGE ( 'NONE', *, *, #733, .F. ) ;
#378 = VECTOR ( 'NONE', #370, 1000.000000000000227 ) ;
#379 = DIRECTION ( 'NONE',  ( -0.000000000000000000, -0.000000000000000000, 1.000000000000000000 ) ) ;
#380 = PERSON_AND_ORGANIZATION_ROLE ( 'design_owner' ) ;
#381 = DIRECTION ( 'NONE',  ( -0.000000000000000000, 1.000000000000000000, -0.000000000000000000 ) ) ;
#382 = CARTESIAN_POINT ( 'NONE',  ( 17.93547913165868835, 91.03608723385997337, -195.0000000000000000 ) ) ;
#383 = DATE_TIME_ROLE ( 'creation_date' ) ;
#384 = CARTESIAN_POINT ( 'NONE',  ( 5.000000000000018652, 4.999999999999997335, -5.000000000000000000 ) ) ;
#385 = ORIENTED_EDGE ( 'NONE', *, *, #171, .T. ) ;
#386 = LINE ( 'NONE', #680, #12 ) ;
#387 = ADVANCED_FACE ( 'NONE', ( #729 ), #204, .T. ) ;
#388 = PERSON_AND_ORGANIZATION_ROLE ( 'classification_officer' ) ;
#389 = CC_DESIGN_APPROVAL ( #304, ( #711 ) ) ;
#390 = CARTESIAN_POINT ( 'NONE',  ( 0.000000000000000000, 0.000000000000000000, -200.0000000000000000 ) ) ;
#391 = VECTOR ( 'NONE', #501, 1000.000000000000000 ) ;
#392 = LINE ( 'NONE', #606, #493 ) ;
#393 = AXIS2_PLACEMENT_3D ( 'NONE', #741, #28, #32 ) ;
#394 = PLANE ( 'NONE',  #21 ) ;
#395 = EDGE_CURVE ( 'NONE', #211, #280, #425, .T. ) ;
#396 = VERTEX_POINT ( 'NONE', #15 ) ;
#397 = CARTESIAN_POINT ( 'NONE',  ( 17.93547913165868835, 72.22287691621650652, -195.0000000000000000 ) ) ;
#398 = CARTESIAN_POINT ( 'NONE',  ( 4.999999999999997335, 4.999999999999997335, -195.0000000000000000 ) ) ;
#399 = ORIENTED_EDGE ( 'NONE', *, *, #26, .T. ) ;
#400 = VERTEX_POINT ( 'NONE', #264 ) ;
#401 = LINE ( 'NONE', #208, #597 ) ;
#402 = ORIENTED_EDGE ( 'NONE', *, *, #466, .T. ) ;
#403 = DIRECTION ( 'NONE',  ( -0.000000000000000000, -1.000000000000000000, -0.000000000000000000 ) ) ;
#404 = VECTOR ( 'NONE', #520, 1000.000000000000000 ) ;
#405 = VERTEX_POINT ( 'NONE', #80 ) ;
#406 = PLANE ( 'NONE',  #326 ) ;
#407 = ORIENTED_EDGE ( 'NONE', *, *, #340, .F. ) ;
#408 = DIRECTION ( 'NONE',  ( 1.000000000000000000, 0.000000000000000000, -4.565061778886334783E-18 ) ) ;
#409 = ORIENTED_EDGE ( 'NONE', *, *, #511, .T. ) ;
#410 = DIRECTION ( 'NONE',  ( 1.000000000000000000, 0.000000000000000000, 0.000000000000000000 ) ) ;
#411 = VECTOR ( 'NONE', #66, 1000.000000000000000 ) ;
#412 = ORIENTED_EDGE ( 'NONE', *, *, #426, .T. ) ;
#413 = PLANE ( 'NONE',  #756 ) ;
#414 = LINE ( 'NONE', #75, #256 ) ;
#415 = EDGE_CURVE ( 'NONE', #696, #752, #139, .T. ) ;
#416 = CALENDAR_DATE ( 2025, 14, 6 ) ;
#417 = FACE_OUTER_BOUND ( 'NONE', #693, .T. ) ;
#418 = ORIENTED_EDGE ( 'NONE', *, *, #277, .F. ) ;
#419 = ORIENTED_EDGE ( 'NONE', *, *, #246, .T. ) ;
#420 = EDGE_CURVE ( 'NONE', #303, #48, #362, .T. ) ;
#421 = LINE ( 'NONE', #434, #702 ) ;
#422 = VECTOR ( 'NONE', #63, 1000.000000000000000 ) ;
#423 = CARTESIAN_POINT ( 'NONE',  ( 0.000000000000000000, 40.00000000000000000, -109.9999999999999716 ) ) ;
#424 = ORIENTED_EDGE ( 'NONE', *, *, #466, .F. ) ;
#425 = LINE ( 'NONE', #131, #85 ) ;
#426 = EDGE_CURVE ( 'NONE', #303, #64, #421, .T. ) ;
#427 = ORIENTED_EDGE ( 'NONE', *, *, #426, .F. ) ;
#428 = ORIENTED_EDGE ( 'NONE', *, *, #569, .F. ) ;
#429 = DIRECTION ( 'NONE',  ( 1.000000000000000000, 0.000000000000000000, 0.000000000000000000 ) ) ;
#430 = DATE_AND_TIME ( #149, #548 ) ;
#431 = LINE ( 'NONE', #390, #220 ) ;
#432 = ORIENTED_EDGE ( 'NONE', *, *, #567, .F. ) ;
#433 = VERTEX_POINT ( 'NONE', #595 ) ;
#434 = CARTESIAN_POINT ( 'NONE',  ( 0.000000000000000000, 40.00000000000000000, 0.000000000000000000 ) ) ;
#435 = CARTESIAN_POINT ( 'NONE',  ( 73.72637869432548996, 47.24671839106917304, -195.0000000000000000 ) ) ;
#436 = ORIENTED_EDGE ( 'NONE', *, *, #277, .T. ) ;
#437 = CARTESIAN_POINT ( 'NONE',  ( 0.000000000000000000, 4.999999999999997335, 0.000000000000000000 ) ) ;
#438 = FACE_OUTER_BOUND ( 'NONE', #531, .T. ) ;
#439 = ORIENTED_EDGE ( 'NONE', *, *, #733, .T. ) ;
#440 = CC_DESIGN_PERSON_AND_ORGANIZATION_ASSIGNMENT ( #596, #549, ( #707 ) ) ;
#441 = LINE ( 'NONE', #281, #480 ) ;
#442 = PERSON_AND_ORGANIZATION ( #342, #186 ) ;
#443 = CARTESIAN_POINT ( 'NONE',  ( 100.0000000000000000, 4.999999999999997335, -195.0000000000000000 ) ) ;
#444 = DIRECTION ( 'NONE',  ( -0.7071067811865362485, -0.7071067811865587860, 0.000000000000000000 ) ) ;
#445 = DIRECTION ( 'NONE',  ( -0.7071067811865587860, 0.7071067811865362485, -0.000000000000000000 ) ) ;
#446 = ADVANCED_FACE ( 'NONE', ( #534 ), #479, .F. ) ;
#447 = CARTESIAN_POINT ( 'NONE',  ( 200.0000000000000000, 40.00000000000000000, -200.0000000000000000 ) ) ;
#448 = ORIENTED_EDGE ( 'NONE', *, *, #540, .F. ) ;
#449 = AXIS2_PLACEMENT_3D ( 'NONE', #488, #642, #723 ) ;
#450 = VECTOR ( 'NONE', #276, 1000.000000000000000 ) ;
#451 = FACE_OUTER_BOUND ( 'NONE', #169, .T. ) ;
#452 = EDGE_CURVE ( 'NONE', #199, #588, #585, .T. ) ;
#453 = CC_DESIGN_APPROVAL ( #626, ( #478 ) ) ;
#454 = ORIENTED_EDGE ( 'NONE', *, *, #567, .T. ) ;
#455 = DIRECTION ( 'NONE',  ( 0.000000000000000000, 0.000000000000000000, -1.000000000000000000 ) ) ;
#456 = CARTESIAN_POINT ( 'NONE',  ( 30.09919269910079365, 60.05916334877479557, -109.9999999999999716 ) ) ;
#457 = ORIENTED_EDGE ( 'NONE', *, *, #49, .F. ) ;
#458 = PLANE ( 'NONE',  #219 ) ;
#459 = CC_DESIGN_APPROVAL ( #637, ( #707 ) ) ;
#460 = ORIENTED_EDGE ( 'NONE', *, *, #452, .T. ) ;
#461 = CARTESIAN_POINT ( 'NONE',  ( 5.000000000000018652, 40.00000000000000000, -5.000000000000000000 ) ) ;
#462 = VECTOR ( 'NONE', #121, 1000.000000000000000 ) ;
#463 = AXIS2_PLACEMENT_3D ( 'NONE', #743, #218, #50 ) ;
#464 = ORIENTED_EDGE ( 'NONE', *, *, #322, .F. ) ;
#465 = DIRECTION ( 'NONE',  ( -1.000000000000000000, -0.000000000000000000, -0.000000000000000000 ) ) ;
#466 = EDGE_CURVE ( 'NONE', #280, #236, #528, .T. ) ;
#467 = EDGE_LOOP ( 'NONE', ( #591, #160, #627, #460, #644, #286 ) ) ;
#468 = LINE ( 'NONE', #176, #129 ) ;
#469 = DIRECTION ( 'NONE',  ( -1.000000000000000000, 0.000000000000000000, 0.000000000000000000 ) ) ;
#470 = LINE ( 'NONE', #170, #333 ) ;
#471 = VECTOR ( 'NONE', #379, 1000.000000000000000 ) ;
#472 = VERTEX_POINT ( 'NONE', #248 ) ;
#473 = CARTESIAN_POINT ( 'NONE',  ( 73.72637869432548996, 47.24671839106917304, -109.9999999999999716 ) ) ;
#474 = VERTEX_POINT ( 'NONE', #704 ) ;
#475 = DIRECTION ( 'NONE',  ( 0.000000000000000000, 0.000000000000000000, 1.000000000000000000 ) ) ;
#476 = LINE ( 'NONE', #649, #353 ) ;
#477 = VERTEX_POINT ( 'NONE', #592 ) ;
#478 = SECURITY_CLASSIFICATION ( '', '', #608 ) ;
#479 = PLANE ( 'NONE',  #564 ) ;
#480 = VECTOR ( 'NONE', #445, 1000.000000000000000 ) ;
#481 = CARTESIAN_POINT ( 'NONE',  ( 73.72637869432548996, 19.99999999999934275, -195.0000000000000000 ) ) ;
#482 = VERTEX_POINT ( 'NONE', #77 ) ;
#483 = CC_DESIGN_PERSON_AND_ORGANIZATION_ASSIGNMENT ( #655, #736, ( #711 ) ) ;
#484 = LINE ( 'NONE', #718, #471 ) ;
#485 = COORDINATED_UNIVERSAL_TIME_OFFSET ( 5, 30, .AHEAD. ) ;
#486 = UNCERTAINTY_MEASURE_WITH_UNIT (LENGTH_MEASURE( 1.000000000000000082E-05 ), #259, 'distance_accuracy_value', 'NONE');
#487 = DIRECTION ( 'NONE',  ( -1.000000000000000000, 0.000000000000000000, 0.000000000000000000 ) ) ;
#488 = CARTESIAN_POINT ( 'NONE',  ( 0.000000000000000000, 40.00000000000000000, -200.0000000000000000 ) ) ;
#489 = CARTESIAN_POINT ( 'NONE',  ( 4.999999999999997335, 4.999999999999997335, -195.0000000000000000 ) ) ;
#490 = APPROVAL_PERSON_ORGANIZATION ( #730, #637, #205 ) ;
#491 = CARTESIAN_POINT ( 'NONE',  ( 56.21063115720917125, 47.24671839106917304, -109.9999999999999716 ) ) ;
#492 = CARTESIAN_POINT ( 'NONE',  ( 73.72637869432548996, 19.99999999999934275, -109.9999999999999716 ) ) ;
#493 = VECTOR ( 'NONE', #278, 1000.000000000000000 ) ;
#494 = VECTOR ( 'NONE', #237, 1000.000000000000000 ) ;
#495 = ORIENTED_EDGE ( 'NONE', *, *, #569, .T. ) ;
#496 = CARTESIAN_POINT ( 'NONE',  ( 100.0000000000000000, 19.99999999999934275, -109.9999999999999716 ) ) ;
#497 = DATE_AND_TIME ( #502, #330 ) ;
#498 = DIRECTION ( 'NONE',  ( -1.000000000000000000, 0.000000000000000000, -0.000000000000000000 ) ) ;
#499 = ORIENTED_EDGE ( 'NONE', *, *, #289, .F. ) ;
#500 = DIRECTION ( 'NONE',  ( -1.000000000000000000, 0.000000000000000000, -0.000000000000000000 ) ) ;
#501 = DIRECTION ( 'NONE',  ( -1.000000000000000000, -0.000000000000000000, -0.000000000000000000 ) ) ;
#502 = CALENDAR_DATE ( 2025, 14, 6 ) ;
#503 = LINE ( 'NONE', #737, #690 ) ;
#504 = ORIENTED_EDGE ( 'NONE', *, *, #586, .F. ) ;
#505 = EDGE_CURVE ( 'NONE', #79, #359, #651, .T. ) ;
#506 = DIRECTION ( 'NONE',  ( -0.000000000000000000, 1.000000000000000000, -0.000000000000000000 ) ) ;
#507 = ORIENTED_EDGE ( 'NONE', *, *, #586, .T. ) ;
#508 = VECTOR ( 'NONE', #307, 1000.000000000000000 ) ;
#509 = FACE_OUTER_BOUND ( 'NONE', #320, .T. ) ;
#510 = CARTESIAN_POINT ( 'NONE',  ( 49.39895155944171279, 60.05916334877479557, -109.9999999999999716 ) ) ;
#511 = EDGE_CURVE ( 'NONE', #211, #405, #252, .T. ) ;
#512 = ORIENTED_EDGE ( 'NONE', *, *, #372, .T. ) ;
#513 = ORIENTED_EDGE ( 'NONE', *, *, #645, .T. ) ;
#514 = LINE ( 'NONE', #561, #143 ) ;
#515 = ORIENTED_EDGE ( 'NONE', *, *, #31, .F. ) ;
#516 = LINE ( 'NONE', #67, #35 ) ;
#517 = VECTOR ( 'NONE', #558, 1000.000000000000000 ) ;
#518 = AXIS2_PLACEMENT_3D ( 'NONE', #640, #124, #358 ) ;
#519 = ORIENTED_EDGE ( 'NONE', *, *, #251, .T. ) ;
#520 = DIRECTION ( 'NONE',  ( 1.095614826932720348E-16, 0.000000000000000000, 1.000000000000000000 ) ) ;
#521 = ORIENTED_EDGE ( 'NONE', *, *, #415, .T. ) ;
#522 = CARTESIAN_POINT ( 'NONE',  ( 49.39895155944171279, 60.05916334877479557, -109.9999999999999716 ) ) ;
#523 = EDGE_CURVE ( 'NONE', #563, #482, #193, .T. ) ;
#524 = CARTESIAN_POINT ( 'NONE',  ( 0.000000000000000000, 91.03608723385997337, -195.0000000000000000 ) ) ;
#525 = DIRECTION ( 'NONE',  ( 0.4694276020634159940, -0.8829709657859601268, 0.000000000000000000 ) ) ;
#526 = ORIENTED_EDGE ( 'NONE', *, *, #100, .T. ) ;
#527 = ORIENTED_EDGE ( 'NONE', *, *, #744, .F. ) ;
#528 = LINE ( 'NONE', #600, #301 ) ;
#529 = EDGE_LOOP ( 'NONE', ( #686, #638, #239, #526 ) ) ;
#530 = EDGE_CURVE ( 'NONE', #280, #199, #182, .T. ) ;
#531 = EDGE_LOOP ( 'NONE', ( #355, #137, #54, #195 ) ) ;
#532 = DIRECTION ( 'NONE',  ( 0.000000000000000000, 0.000000000000000000, 1.000000000000000000 ) ) ;
#533 = ORIENTED_EDGE ( 'NONE', *, *, #7, .F. ) ;
#534 = FACE_OUTER_BOUND ( 'NONE', #599, .T. ) ;
#535 = COORDINATED_UNIVERSAL_TIME_OFFSET ( 5, 30, .AHEAD. ) ;
#536 = AXIS2_PLACEMENT_3D ( 'NONE', #212, #444, #742 ) ;
#537 = VECTOR ( 'NONE', #381, 1000.000000000000000 ) ;
#538 = FACE_OUTER_BOUND ( 'NONE', #172, .T. ) ;
#539 = ORIENTED_EDGE ( 'NONE', *, *, #285, .F. ) ;
#540 = EDGE_CURVE ( 'NONE', #594, #477, #484, .T. ) ;
#541 = CARTESIAN_POINT ( 'NONE',  ( 73.72637869432548996, 19.99999999999934275, -195.0000000000000000 ) ) ;
#542 = LINE ( 'NONE', #435, #537 ) ;
#543 = VERTEX_POINT ( 'NONE', #196 ) ;
#544 = DIRECTION ( 'NONE',  ( -0.000000000000000000, 1.000000000000000000, -0.000000000000000000 ) ) ;
#545 = DIRECTION ( 'NONE',  ( 1.000000000000000000, 0.000000000000000000, 0.000000000000000000 ) ) ;
#546 = VERTEX_POINT ( 'NONE', #541 ) ;
#547 = LINE ( 'NONE', #735, #648 ) ;
#548 = LOCAL_TIME ( 18, 52, 57.00000000000000000, #535 ) ;
#549 = PERSON_AND_ORGANIZATION_ROLE ( 'creator' ) ;
#550 = PLANE ( 'NONE',  #635 ) ;
#551 = VECTOR ( 'NONE', #151, 1000.000000000000227 ) ;
#552 = AXIS2_PLACEMENT_3D ( 'NONE', #240, #469, #532 ) ;
#553 = LINE ( 'NONE', #397, #517 ) ;
#554 = CARTESIAN_POINT ( 'NONE',  ( 17.93547913165868835, 72.22287691621650652, -195.0000000000000000 ) ) ;
#555 =( NAMED_UNIT ( * ) SI_UNIT ( $, .STERADIAN. ) SOLID_ANGLE_UNIT ( ) );
#556 = LINE ( 'NONE', #593, #120 ) ;
#557 = ADVANCED_FACE ( 'NONE', ( #417 ), #25, .F. ) ;
#558 = DIRECTION ( 'NONE',  ( -0.7071067811865587860, 0.7071067811865362485, -0.000000000000000000 ) ) ;
#559 = DIRECTION ( 'NONE',  ( -1.000000000000000000, -0.000000000000000000, -0.000000000000000000 ) ) ;
#560 = CC_DESIGN_PERSON_AND_ORGANIZATION_ASSIGNMENT ( #154, #388, ( #478 ) ) ;
#561 = CARTESIAN_POINT ( 'NONE',  ( 73.72637869432548996, 19.99999999999934275, -109.9999999999999716 ) ) ;
#562 = LINE ( 'NONE', #345, #255 ) ;
#563 = VERTEX_POINT ( 'NONE', #200 ) ;
#564 = AXIS2_PLACEMENT_3D ( 'NONE', #647, #73, #187 ) ;
#565 = CARTESIAN_POINT ( 'NONE',  ( 5.000000000000018652, 4.999999999999997335, -5.000000000000000000 ) ) ;
#566 = DIRECTION ( 'NONE',  ( 0.000000000000000000, -0.000000000000000000, -1.000000000000000000 ) ) ;
#567 = EDGE_CURVE ( 'NONE', #306, #472, #659, .T. ) ;
#568 = ORIENTED_EDGE ( 'NONE', *, *, #177, .F. ) ;
#569 = EDGE_CURVE ( 'NONE', #191, #93, #321, .T. ) ;
#570 = ORIENTED_EDGE ( 'NONE', *, *, #523, .F. ) ;
#571 = CARTESIAN_POINT ( 'NONE',  ( 0.000000000000000000, 40.00000000000000000, 0.000000000000000000 ) ) ;
#572 = ORIENTED_EDGE ( 'NONE', *, *, #329, .T. ) ;
#573 = ADVANCED_FACE ( 'NONE', ( #679 ), #284, .T. ) ;
#574 = LINE ( 'NONE', #579, #404 ) ;
#575 = VECTOR ( 'NONE', #42, 1000.000000000000000 ) ;
#576 = ORIENTED_EDGE ( 'NONE', *, *, #719, .F. ) ;
#577 = EDGE_CURVE ( 'NONE', #588, #623, #41, .T. ) ;
#578 = ORIENTED_EDGE ( 'NONE', *, *, #111, .F. ) ;
#579 = CARTESIAN_POINT ( 'NONE',  ( 4.999999999999997335, 40.00000000000000000, -195.0000000000000000 ) ) ;
#580 = ADVANCED_FACE ( 'NONE', ( #164 ), #231, .F. ) ;
#581 = APPROVAL_DATE_TIME ( #238, #626 ) ;
#582 = CARTESIAN_POINT ( 'NONE',  ( 200.0000000000000000, 40.00000000000000000, 0.000000000000000000 ) ) ;
#583 = ORIENTED_EDGE ( 'NONE', *, *, #657, .F. ) ;
#584 = VECTOR ( 'NONE', #91, 1000.000000000000000 ) ;
#585 = LINE ( 'NONE', #654, #624 ) ;
#586 = EDGE_CURVE ( 'NONE', #207, #396, #672, .T. ) ;
#587 = DIRECTION ( 'NONE',  ( -0.000000000000000000, -1.000000000000000000, -0.000000000000000000 ) ) ;
#588 = VERTEX_POINT ( 'NONE', #565 ) ;
#589 = DIRECTION ( 'NONE',  ( 0.000000000000000000, -0.000000000000000000, 1.000000000000000000 ) ) ;
#590 = CARTESIAN_POINT ( 'NONE',  ( 195.0000000000000000, 40.00000000000000000, -195.0000000000000000 ) ) ;
#591 = ORIENTED_EDGE ( 'NONE', *, *, #294, .T. ) ;
#592 = CARTESIAN_POINT ( 'NONE',  ( 0.000000000000000000, 40.00000000000000000, -195.0000000000000000 ) ) ;
#593 = CARTESIAN_POINT ( 'NONE',  ( 100.0000000000000000, 19.99999999999934275, -109.9999999999999716 ) ) ;
#594 = VERTEX_POINT ( 'NONE', #344 ) ;
#595 = CARTESIAN_POINT ( 'NONE',  ( 30.09919269910079365, 60.05916334877479557, -195.0000000000000000 ) ) ;
#596 = PERSON_AND_ORGANIZATION ( #342, #186 ) ;
#597 = VECTOR ( 'NONE', #622, 1000.000000000000000 ) ;
#598 = CARTESIAN_POINT ( 'NONE',  ( 100.0000000000000000, 19.99999999999934275, -109.9999999999999716 ) ) ;
#599 = EDGE_LOOP ( 'NONE', ( #20, #576, #266, #495 ) ) ;
#600 = CARTESIAN_POINT ( 'NONE',  ( 100.0000000000000000, 19.99999999999934275, -109.9999999999999716 ) ) ;
#601 = CARTESIAN_POINT ( 'NONE',  ( 0.000000000000000000, 40.00000000000000000, -195.0000000000000000 ) ) ;
#602 = ORIENTED_EDGE ( 'NONE', *, *, #7, .T. ) ;
#603 = DIRECTION ( 'NONE',  ( 0.000000000000000000, -1.000000000000000000, 0.000000000000000000 ) ) ;
#604 = LINE ( 'NONE', #337, #268 ) ;
#605 = ORIENTED_EDGE ( 'NONE', *, *, #719, .T. ) ;
#606 = CARTESIAN_POINT ( 'NONE',  ( 73.72637869432548996, 47.24671839106917304, -109.9999999999999716 ) ) ;
#607 = LINE ( 'NONE', #491, #712 ) ;
#608 = SECURITY_CLASSIFICATION_LEVEL ( 'unclassified' ) ;
#609 = DIRECTION ( 'NONE',  ( -1.000000000000000000, -0.000000000000000000, -0.000000000000000000 ) ) ;
#610 = VECTOR ( 'NONE', #206, 1000.000000000000000 ) ;
#611 = CARTESIAN_POINT ( 'NONE',  ( 195.0000000000000000, 4.999999999999997335, -195.0000000000000000 ) ) ;
#612 = CARTESIAN_POINT ( 'NONE',  ( 0.000000000000000000, 40.00000000000000000, 0.000000000000000000 ) ) ;
#613 = APPROVAL_ROLE ( '' ) ;
#614 = CC_DESIGN_DATE_AND_TIME_ASSIGNMENT ( #430, #383, ( #707 ) ) ;
#615 = ORIENTED_EDGE ( 'NONE', *, *, #111, .T. ) ;
#616 = DIRECTION ( 'NONE',  ( 0.000000000000000000, 0.000000000000000000, -1.000000000000000000 ) ) ;
#617 = PLANE ( 'NONE',  #37 ) ;
#618 = VERTEX_POINT ( 'NONE', #217 ) ;
#619 =( GEOMETRIC_REPRESENTATION_CONTEXT ( 3 ) GLOBAL_UNCERTAINTY_ASSIGNED_CONTEXT ( ( #486 ) ) GLOBAL_UNIT_ASSIGNED_CONTEXT ( ( #259, #145, #555 ) ) REPRESENTATION_CONTEXT ( 'NONE', 'WORKASPACE' ) );
#620 = EDGE_CURVE ( 'NONE', #433, #302, #553, .T. ) ;
#621 = CARTESIAN_POINT ( 'NONE',  ( 49.39895155944171279, 60.05916334877479557, -109.9999999999999716 ) ) ;
#622 = DIRECTION ( 'NONE',  ( -1.460819769243627131E-16, -0.000000000000000000, -1.000000000000000000 ) ) ;
#623 = VERTEX_POINT ( 'NONE', #461 ) ;
#624 = VECTOR ( 'NONE', #22, 1000.000000000000000 ) ;
#625 = LINE ( 'NONE', #167, #72 ) ;
#626 = APPROVAL ( #375, 'UNSPECIFIED' ) ;
#627 = ORIENTED_EDGE ( 'NONE', *, *, #530, .T. ) ;
#628 = DIRECTION ( 'NONE',  ( 4.565061778886334783E-18, 0.000000000000000000, 1.000000000000000000 ) ) ;
#629 = ORIENTED_EDGE ( 'NONE', *, *, #657, .T. ) ;
#630 = CARTESIAN_POINT ( 'NONE',  ( 73.72637869432548996, 47.24671839106917304, -195.0000000000000000 ) ) ;
#631 = ADVANCED_FACE ( 'NONE', ( #226 ), #458, .F. ) ;
#632 = ORIENTED_EDGE ( 'NONE', *, *, #395, .F. ) ;
#633 = LINE ( 'NONE', #235, #646 ) ;
#634 = VECTOR ( 'NONE', #403, 1000.000000000000000 ) ;
#635 = AXIS2_PLACEMENT_3D ( 'NONE', #150, #99, #43 ) ;
#636 = APPROVAL_PERSON_ORGANIZATION ( #23, #626, #613 ) ;
#637 = APPROVAL ( #81, 'UNSPECIFIED' ) ;
#638 = ORIENTED_EDGE ( 'NONE', *, *, #727, .F. ) ;
#639 = CARTESIAN_POINT ( 'NONE',  ( 0.000000000000000000, 40.00000000000000000, 0.000000000000000000 ) ) ;
#640 = CARTESIAN_POINT ( 'NONE',  ( 73.72637869432548996, 19.99999999999934275, -109.9999999999999716 ) ) ;
#641 = EDGE_CURVE ( 'NONE', #48, #101, #273, .T. ) ;
#642 = DIRECTION ( 'NONE',  ( 0.000000000000000000, 0.000000000000000000, 1.000000000000000000 ) ) ;
#643 = LINE ( 'NONE', #249, #292 ) ;
#644 = ORIENTED_EDGE ( 'NONE', *, *, #177, .T. ) ;
#645 = EDGE_CURVE ( 'NONE', #474, #752, #625, .T. ) ;
#646 = VECTOR ( 'NONE', #241, 1000.000000000000000 ) ;
#647 = CARTESIAN_POINT ( 'NONE',  ( 195.0000000000000000, 4.999999999999997335, -195.0000000000000000 ) ) ;
#648 = VECTOR ( 'NONE', #96, 1000.000000000000000 ) ;
#649 = CARTESIAN_POINT ( 'NONE',  ( 5.000000000000007105, 4.999999999999997335, -109.9999999999999716 ) ) ;
#650 = ORIENTED_EDGE ( 'NONE', *, *, #505, .T. ) ;
#651 = LINE ( 'NONE', #258, #508 ) ;
#652 = EDGE_CURVE ( 'NONE', #175, #696, #392, .T. ) ;
#653 = VERTEX_POINT ( 'NONE', #611 ) ;
#654 = CARTESIAN_POINT ( 'NONE',  ( 4.999999999999997335, 4.999999999999997335, -195.0000000000000000 ) ) ;
#655 = PERSON_AND_ORGANIZATION ( #342, #186 ) ;
#656 = FACE_OUTER_BOUND ( 'NONE', #283, .T. ) ;
#657 = EDGE_CURVE ( 'NONE', #101, #359, #102, .T. ) ;
#658 = ORIENTED_EDGE ( 'NONE', *, *, #171, .F. ) ;
#659 = LINE ( 'NONE', #144, #584 ) ;
#660 = APPLICATION_PROTOCOL_DEFINITION ( 'international standard', 'config_control_design', 1994, #227 ) ;
#661 = DIRECTION ( 'NONE',  ( -0.000000000000000000, -0.000000000000000000, 1.000000000000000000 ) ) ;
#662 = ORIENTED_EDGE ( 'NONE', *, *, #620, .F. ) ;
#663 = EDGE_CURVE ( 'NONE', #236, #175, #514, .T. ) ;
#664 = DIRECTION ( 'NONE',  ( -0.000000000000000000, -0.000000000000000000, -1.000000000000000000 ) ) ;
#665 = DATE_AND_TIME ( #197, #116 ) ;
#666 = CARTESIAN_POINT ( 'NONE',  ( 4.999999999999997335, 40.00000000000000000, -195.0000000000000000 ) ) ;
#667 = ORIENTED_EDGE ( 'NONE', *, *, #725, .T. ) ;
#668 = ADVANCED_FACE ( 'NONE', ( #509 ), #348, .F. ) ;
#669 = DIRECTION ( 'NONE',  ( -0.000000000000000000, -1.000000000000000000, -0.000000000000000000 ) ) ;
#670 = PERSON_AND_ORGANIZATION_ROLE ( 'design_supplier' ) ;
#671 = LINE ( 'NONE', #666, #450 ) ;
#672 = LINE ( 'NONE', #621, #551 ) ;
#673 = CARTESIAN_POINT ( 'NONE',  ( 0.000000000000000000, 40.00000000000000000, -195.0000000000000000 ) ) ;
#674 = CC_DESIGN_DATE_AND_TIME_ASSIGNMENT ( #740, #214, ( #478 ) ) ;
#675 = CARTESIAN_POINT ( 'NONE',  ( 4.999999999999997335, 4.999999999999997335, -195.0000000000000000 ) ) ;
#676 = AXIS2_PLACEMENT_3D ( 'NONE', #437, #126, #589 ) ;
#677 = VECTOR ( 'NONE', #24, 1000.000000000000000 ) ;
#678 = ORIENTED_EDGE ( 'NONE', *, *, #69, .T. ) ;
#679 = FACE_OUTER_BOUND ( 'NONE', #234, .T. ) ;
#680 = CARTESIAN_POINT ( 'NONE',  ( 0.000000000000000000, 91.03608723385997337, -195.0000000000000000 ) ) ;
#681 = EDGE_CURVE ( 'NONE', #76, #44, #4, .T. ) ;
#682 = EDGE_LOOP ( 'NONE', ( #602, #399, #293, #288, #402, #5, #52, #71, #507, #83, #572, #230, #439 ) ) ;
#683 = CARTESIAN_POINT ( 'NONE',  ( 5.000000000000018652, 4.999999999999997335, -5.000000000000000000 ) ) ;
#684 = LINE ( 'NONE', #673, #745 ) ;
#685 = EDGE_CURVE ( 'NONE', #163, #623, #574, .T. ) ;
#686 = ORIENTED_EDGE ( 'NONE', *, *, #620, .T. ) ;
#687 = CARTESIAN_POINT ( 'NONE',  ( 200.0000000000000000, 40.00000000000000000, 0.000000000000000000 ) ) ;
#688 = AXIS2_PLACEMENT_3D ( 'NONE', #522, #9, #525 ) ;
#689 = ORIENTED_EDGE ( 'NONE', *, *, #505, .F. ) ;
#690 = VECTOR ( 'NONE', #609, 1000.000000000000000 ) ;
#691 = LINE ( 'NONE', #58, #494 ) ;
#692 = EDGE_CURVE ( 'NONE', #101, #594, #516, .T. ) ;
#693 = EDGE_LOOP ( 'NONE', ( #349, #114, #325, #629 ) ) ;
#694 = CARTESIAN_POINT ( 'NONE',  ( 195.0000000000000000, 40.00000000000000000, -195.0000000000000000 ) ) ;
#695 = PRODUCT_DEFINITION_SHAPE ( 'NONE', 'NONE',  #707 ) ;
#696 = VERTEX_POINT ( 'NONE', #299 ) ;
#697 = DIRECTION ( 'NONE',  ( 1.000000000000000000, -0.000000000000000000, 0.000000000000000000 ) ) ;
#698 = EDGE_CURVE ( 'NONE', #175, #546, #352, .T. ) ;
#699 = ADVANCED_FACE ( 'NONE', ( #350 ), #6, .F. ) ;
#700 = DIRECTION ( 'NONE',  ( 0.000000000000000000, 0.000000000000000000, 1.000000000000000000 ) ) ;
#701 = LINE ( 'NONE', #694, #422 ) ;
#702 = VECTOR ( 'NONE', #374, 1000.000000000000000 ) ;
#703 = FACE_OUTER_BOUND ( 'NONE', #351, .T. ) ;
#704 = CARTESIAN_POINT ( 'NONE',  ( 73.72637869432548996, 40.00000000000000000, -195.0000000000000000 ) ) ;
#705 = CARTESIAN_POINT ( 'NONE',  ( 30.09919269910079365, 60.05916334877479557, -109.9999999999999716 ) ) ;
#706 = EDGE_LOOP ( 'NONE', ( #650, #583, #309, #118 ) ) ;
#707 = PRODUCT_DEFINITION ( 'UNKNOWN', '', #711, #346 ) ;
#708 = DIRECTION ( 'NONE',  ( -0.000000000000000000, -0.000000000000000000, -1.000000000000000000 ) ) ;
#709 = DIRECTION ( 'NONE',  ( 0.000000000000000000, -1.000000000000000000, 0.000000000000000000 ) ) ;
#710 = ORIENTED_EDGE ( 'NONE', *, *, #285, .T. ) ;
#711 = PRODUCT_DEFINITION_FORMATION_WITH_SPECIFIED_SOURCE ( 'ANY', '', #61, .NOT_KNOWN. ) ;
#712 = VECTOR ( 'NONE', #749, 1000.000000000000000 ) ;
#713 = CARTESIAN_POINT ( 'NONE',  ( 100.0000000000000000, 19.99999999999934275, -195.0000000000000000 ) ) ;
#714 = AXIS2_PLACEMENT_3D ( 'NONE', #473, #190, #700 ) ;
#715 = ORIENTED_EDGE ( 'NONE', *, *, #685, .F. ) ;
#716 = ORIENTED_EDGE ( 'NONE', *, *, #523, .T. ) ;
#717 = ADVANCED_BREP_SHAPE_REPRESENTATION ( 'Base', ( #189, #68 ), #619 ) ;
#718 = CARTESIAN_POINT ( 'NONE',  ( 0.000000000000000000, 40.00000000000000000, 0.000000000000000000 ) ) ;
#719 = EDGE_CURVE ( 'NONE', #653, #60, #691, .T. ) ;
#720 = FACE_OUTER_BOUND ( 'NONE', #184, .T. ) ;
#721 = ORIENTED_EDGE ( 'NONE', *, *, #415, .F. ) ;
#722 = ORIENTED_EDGE ( 'NONE', *, *, #577, .T. ) ;
#723 = DIRECTION ( 'NONE',  ( 1.000000000000000000, 0.000000000000000000, -0.000000000000000000 ) ) ;
#724 = APPLICATION_PROTOCOL_DEFINITION ( 'international standard', 'config_control_design', 1994, #183 ) ;
#725 = EDGE_CURVE ( 'NONE', #64, #79, #468, .T. ) ;
#726 = CARTESIAN_POINT ( 'NONE',  ( 195.0000000000000284, 40.00000000000000000, -5.000000000000000888 ) ) ;
#727 = EDGE_CURVE ( 'NONE', #618, #302, #633, .T. ) ;
#728 = ORIENTED_EDGE ( 'NONE', *, *, #681, .T. ) ;
#729 = FACE_OUTER_BOUND ( 'NONE', #467, .T. ) ;
#730 = PERSON_AND_ORGANIZATION ( #342, #186 ) ;
#731 = VECTOR ( 'NONE', #113, 1000.000000000000000 ) ;
#732 = LINE ( 'NONE', #384, #62 ) ;
#733 = EDGE_CURVE ( 'NONE', #306, #76, #470, .T. ) ;
#734 = EDGE_LOOP ( 'NONE', ( #436, #432, #464, #369 ) ) ;
#735 = CARTESIAN_POINT ( 'NONE',  ( 56.21063115720917125, 47.24671839106917304, -195.0000000000000000 ) ) ;
#736 = PERSON_AND_ORGANIZATION_ROLE ( 'creator' ) ;
#737 = CARTESIAN_POINT ( 'NONE',  ( 56.21063115720917125, 47.24671839106917304, -109.9999999999999716 ) ) ;
#738 = DIRECTION ( 'NONE',  ( 0.000000000000000000, 0.000000000000000000, 1.000000000000000000 ) ) ;
#739 = CARTESIAN_POINT ( 'NONE',  ( 17.93547913165868835, 91.03608723385997337, -109.9999999999999716 ) ) ;
#740 = DATE_AND_TIME ( #336, #1 ) ;
#741 = CARTESIAN_POINT ( 'NONE',  ( 0.000000000000000000, 91.03608723385997337, -109.9999999999999716 ) ) ;
#742 = DIRECTION ( 'NONE',  ( 0.7071067811865587860, -0.7071067811865362485, 0.000000000000000000 ) ) ;
#743 = CARTESIAN_POINT ( 'NONE',  ( 0.000000000000000000, 0.000000000000000000, -109.9999999999999716 ) ) ;
#744 = EDGE_CURVE ( 'NONE', #93, #60, #701, .T. ) ;
#745 = VECTOR ( 'NONE', #669, 1000.000000000000000 ) ;
#746 = VECTOR ( 'NONE', #545, 1000.000000000000000 ) ;
#747 = ORIENTED_EDGE ( 'NONE', *, *, #3, .F. ) ;
#748 = DIRECTION ( 'NONE',  ( -0.000000000000000000, 1.000000000000000000, -0.000000000000000000 ) ) ;
#749 = DIRECTION ( 'NONE',  ( -0.000000000000000000, -0.000000000000000000, -1.000000000000000000 ) ) ;
#750 = CC_DESIGN_SECURITY_CLASSIFICATION ( #478, ( #711 ) ) ;
#751 = ADVANCED_FACE ( 'NONE', ( #173 ), #406, .F. ) ;
#752 = VERTEX_POINT ( 'NONE', #630 ) ;
#753 = CARTESIAN_POINT ( 'NONE',  ( 0.000000000000000000, 0.000000000000000000, -195.0000000000000000 ) ) ;
#754 = ORIENTED_EDGE ( 'NONE', *, *, #26, .F. ) ;
#755 = ADVANCED_FACE ( 'NONE', ( #295 ), #413, .F. ) ;
#756 = AXIS2_PLACEMENT_3D ( 'NONE', #639, #123, #357 ) ;
ENDSEC;
END-ISO-10303-21;
