ISO-10303-21;
HEADER;
FILE_DESCRIPTION (( 'STEP AP203' ),
    '1' );
FILE_NAME ('block.STEP',
    '2025-06-14T13:22:47',
    ( '' ),
    ( '' ),
    'SwSTEP 2.0',
    'SolidWorks 2023',
    '' );
FILE_SCHEMA (( 'CONFIG_CONTROL_DESIGN' ));
ENDSEC;

DATA;
#1 = ORIENTED_EDGE ( 'NONE', *, *, #37, .F. ) ;
#2 = EDGE_CURVE ( 'NONE', #88, #181, #19, .T. ) ;
#3 = CARTESIAN_POINT ( 'NONE',  ( 0.000000000000000000, 15.00000000000000000, -15.00000000000000000 ) ) ;
#4 = VERTEX_POINT ( 'NONE', #89 ) ;
#5 = FACE_OUTER_BOUND ( 'NONE', #106, .T. ) ;
#6 = DIRECTION ( 'NONE',  ( 0.000000000000000000, 0.000000000000000000, 1.000000000000000000 ) ) ;
#7 = PRODUCT_DEFINITION_FORMATION_WITH_SPECIFIED_SOURCE ( 'ANY', '', #67, .NOT_KNOWN. ) ;
#8 = EDGE_CURVE ( 'NONE', #88, #4, #218, .T. ) ;
#9 = CARTESIAN_POINT ( 'NONE',  ( 15.00000000000000000, 15.00000000000000000, 0.000000000000000000 ) ) ;
#10 = CALENDAR_DATE ( 2025, 14, 6 ) ;
#11 = APPLICATION_CONTEXT ( 'configuration controlled 3d designs of mechanical parts and assemblies' ) ;
#12 = LOCAL_TIME ( 18, 52, 47.00000000000000000, #230 ) ;
#13 = DATE_AND_TIME ( #153, #12 ) ;
#14 = APPROVAL_DATE_TIME ( #134, #118 ) ;
#15 = APPROVAL_STATUS ( 'not_yet_approved' ) ;
#16 = EDGE_CURVE ( 'NONE', #123, #178, #221, .T. ) ;
#17 = VECTOR ( 'NONE', #79, 1000.000000000000000 ) ;
#18 = EDGE_CURVE ( 'NONE', #91, #123, #216, .T. ) ;
#19 = LINE ( 'NONE', #145, #160 ) ;
#20 = MANIFOLD_SOLID_BREP ( 'Boss-Extrude1', #225 ) ;
#21 = ORIENTED_EDGE ( 'NONE', *, *, #185, .F. ) ;
#22 = DIRECTION ( 'NONE',  ( -0.000000000000000000, -0.000000000000000000, 1.000000000000000000 ) ) ;
#23 = CC_DESIGN_APPROVAL ( #118, ( #200 ) ) ;
#24 = CARTESIAN_POINT ( 'NONE',  ( 0.000000000000000000, 0.000000000000000000, 0.000000000000000000 ) ) ;
#25 = ORIENTED_EDGE ( 'NONE', *, *, #37, .T. ) ;
#26 = CC_DESIGN_SECURITY_CLASSIFICATION ( #33, ( #7 ) ) ;
#27 = DIRECTION ( 'NONE',  ( -1.000000000000000000, -0.000000000000000000, -0.000000000000000000 ) ) ;
#28 = CARTESIAN_POINT ( 'NONE',  ( 0.000000000000000000, 0.000000000000000000, -15.00000000000000000 ) ) ;
#29 = AXIS2_PLACEMENT_3D ( 'NONE', #206, #228, #47 ) ;
#30 = SECURITY_CLASSIFICATION_LEVEL ( 'unclassified' ) ;
#31 = PERSON_AND_ORGANIZATION ( #74, #215 ) ;
#32 = CC_DESIGN_PERSON_AND_ORGANIZATION_ASSIGNMENT ( #135, #103, ( #67 ) ) ;
#33 = SECURITY_CLASSIFICATION ( '', '', #30 ) ;
#34 = LINE ( 'NONE', #69, #86 ) ;
#35 = PRODUCT_DEFINITION_SHAPE ( 'NONE', 'NONE',  #200 ) ;
#36 = ORIENTED_EDGE ( 'NONE', *, *, #68, .F. ) ;
#37 = EDGE_CURVE ( 'NONE', #91, #122, #54, .T. ) ;
#38 = ORIENTED_EDGE ( 'NONE', *, *, #2, .T. ) ;
#39 = VERTEX_POINT ( 'NONE', #236 ) ;
#40 = AXIS2_PLACEMENT_3D ( 'NONE', #167, #6, #60 ) ;
#41 = FACE_OUTER_BOUND ( 'NONE', #198, .T. ) ;
#42 = DIRECTION ( 'NONE',  ( 0.000000000000000000, -0.000000000000000000, -1.000000000000000000 ) ) ;
#43 =( NAMED_UNIT ( * ) SI_UNIT ( $, .STERADIAN. ) SOLID_ANGLE_UNIT ( ) );
#44 = VECTOR ( 'NONE', #220, 1000.000000000000000 ) ;
#45 = CC_DESIGN_APPROVAL ( #208, ( #33 ) ) ;
#46 = DIRECTION ( 'NONE',  ( 0.000000000000000000, 0.000000000000000000, -1.000000000000000000 ) ) ;
#47 = DIRECTION ( 'NONE',  ( -1.000000000000000000, 0.000000000000000000, -0.000000000000000000 ) ) ;
#48 = DIRECTION ( 'NONE',  ( 0.000000000000000000, -0.000000000000000000, -1.000000000000000000 ) ) ;
#49 = CALENDAR_DATE ( 2025, 14, 6 ) ;
#50 = DATE_AND_TIME ( #192, #90 ) ;
#51 = PERSON_AND_ORGANIZATION_ROLE ( 'design_supplier' ) ;
#52 = EDGE_LOOP ( 'NONE', ( #142, #108, #177, #213 ) ) ;
#53 = CARTESIAN_POINT ( 'NONE',  ( 0.000000000000000000, 15.00000000000000000, -15.00000000000000000 ) ) ;
#54 = LINE ( 'NONE', #196, #44 ) ;
#55 = ORIENTED_EDGE ( 'NONE', *, *, #2, .F. ) ;
#56 = CC_DESIGN_PERSON_AND_ORGANIZATION_ASSIGNMENT ( #84, #152, ( #33 ) ) ;
#57 = CARTESIAN_POINT ( 'NONE',  ( 15.00000000000000000, 15.00000000000000000, -15.00000000000000000 ) ) ;
#58 = CARTESIAN_POINT ( 'NONE',  ( 0.000000000000000000, 15.00000000000000000, -15.00000000000000000 ) ) ;
#59 = FACE_OUTER_BOUND ( 'NONE', #93, .T. ) ;
#60 = DIRECTION ( 'NONE',  ( 1.000000000000000000, 0.000000000000000000, 0.000000000000000000 ) ) ;
#61 = ORIENTED_EDGE ( 'NONE', *, *, #8, .F. ) ;
#62 = DATE_TIME_ROLE ( 'classification_date' ) ;
#63 = MECHANICAL_CONTEXT ( 'NONE', #64, 'mechanical' ) ;
#64 = APPLICATION_CONTEXT ( 'configuration controlled 3d designs of mechanical parts and assemblies' ) ;
#65 = PERSON_AND_ORGANIZATION ( #74, #215 ) ;
#66 = ORIENTED_EDGE ( 'NONE', *, *, #16, .F. ) ;
#67 = PRODUCT ( 'block', 'block', '', ( #63 ) ) ;
#68 = EDGE_CURVE ( 'NONE', #181, #39, #179, .T. ) ;
#69 = CARTESIAN_POINT ( 'NONE',  ( 0.000000000000000000, 15.00000000000000000, 0.000000000000000000 ) ) ;
#70 = AXIS2_PLACEMENT_3D ( 'NONE', #94, #184, #48 ) ;
#71 = ORIENTED_EDGE ( 'NONE', *, *, #217, .F. ) ;
#72 = ORIENTED_EDGE ( 'NONE', *, *, #73, .F. ) ;
#73 = EDGE_CURVE ( 'NONE', #4, #39, #34, .T. ) ;
#74 = PERSON ( 'UNSPECIFIED', 'UNSPECIFIED', 'UNSPECIFIED', ('UNSPECIFIED'), ('UNSPECIFIED'), ('UNSPECIFIED') ) ;
#75 = CARTESIAN_POINT ( 'NONE',  ( 15.00000000000000000, 15.00000000000000000, 0.000000000000000000 ) ) ;
#76 = CC_DESIGN_DATE_AND_TIME_ASSIGNMENT ( #194, #210, ( #200 ) ) ;
#77 = EDGE_LOOP ( 'NONE', ( #138, #72, #61, #38 ) ) ;
#78 = DIRECTION ( 'NONE',  ( -1.000000000000000000, -0.000000000000000000, -0.000000000000000000 ) ) ;
#79 = DIRECTION ( 'NONE',  ( 0.000000000000000000, 0.000000000000000000, -1.000000000000000000 ) ) ;
#80 = ADVANCED_FACE ( 'NONE', ( #41 ), #199, .F. ) ;
#81 = CARTESIAN_POINT ( 'NONE',  ( 0.000000000000000000, 15.00000000000000000, 0.000000000000000000 ) ) ;
#82 = VECTOR ( 'NONE', #147, 1000.000000000000000 ) ;
#83 = CARTESIAN_POINT ( 'NONE',  ( 15.00000000000000000, 0.000000000000000000, 0.000000000000000000 ) ) ;
#84 = PERSON_AND_ORGANIZATION ( #74, #215 ) ;
#85 = PERSON_AND_ORGANIZATION ( #74, #215 ) ;
#86 = VECTOR ( 'NONE', #141, 1000.000000000000000 ) ;
#87 = DATE_AND_TIME ( #191, #168 ) ;
#88 = VERTEX_POINT ( 'NONE', #3 ) ;
#89 = CARTESIAN_POINT ( 'NONE',  ( 0.000000000000000000, 15.00000000000000000, 0.000000000000000000 ) ) ;
#90 = LOCAL_TIME ( 18, 52, 47.00000000000000000, #101 ) ;
#91 = VERTEX_POINT ( 'NONE', #75 ) ;
#92 = ORIENTED_EDGE ( 'NONE', *, *, #136, .F. ) ;
#93 = EDGE_LOOP ( 'NONE', ( #161, #66, #143, #25 ) ) ;
#94 = CARTESIAN_POINT ( 'NONE',  ( 0.000000000000000000, 0.000000000000000000, 0.000000000000000000 ) ) ;
#95 = VECTOR ( 'NONE', #133, 1000.000000000000000 ) ;
#96 = CARTESIAN_POINT ( 'NONE',  ( 15.00000000000000000, 0.000000000000000000, 0.000000000000000000 ) ) ;
#97 = AXIS2_PLACEMENT_3D ( 'NONE', #117, #189, #42 ) ;
#98 = ADVANCED_FACE ( 'NONE', ( #59 ), #170, .F. ) ;
#99 = APPROVAL_DATE_TIME ( #13, #208 ) ;
#100 = ADVANCED_FACE ( 'NONE', ( #130 ), #113, .F. ) ;
#101 = COORDINATED_UNIVERSAL_TIME_OFFSET ( 5, 30, .AHEAD. ) ;
#102 = APPROVAL_PERSON_ORGANIZATION ( #209, #118, #104 ) ;
#103 = PERSON_AND_ORGANIZATION_ROLE ( 'design_owner' ) ;
#104 = APPROVAL_ROLE ( '' ) ;
#105 = LOCAL_TIME ( 18, 52, 47.00000000000000000, #176 ) ;
#106 = EDGE_LOOP ( 'NONE', ( #36, #21, #197, #162 ) ) ;
#107 = APPROVAL ( #15, 'UNSPECIFIED' ) ;
#108 = ORIENTED_EDGE ( 'NONE', *, *, #136, .T. ) ;
#109 = ORIENTED_EDGE ( 'NONE', *, *, #16, .T. ) ;
#110 = VECTOR ( 'NONE', #201, 1000.000000000000000 ) ;
#111 = DIRECTION ( 'NONE',  ( 0.000000000000000000, 0.000000000000000000, 1.000000000000000000 ) ) ;
#112 = ORIENTED_EDGE ( 'NONE', *, *, #185, .T. ) ;
#113 = PLANE ( 'NONE',  #119 ) ;
#114 = CARTESIAN_POINT ( 'NONE',  ( 15.00000000000000000, 0.000000000000000000, -15.00000000000000000 ) ) ;
#115 =( NAMED_UNIT ( * ) PLANE_ANGLE_UNIT ( ) SI_UNIT ( $, .RADIAN. ) );
#116 = PLANE ( 'NONE',  #97 ) ;
#117 = CARTESIAN_POINT ( 'NONE',  ( 0.000000000000000000, 15.00000000000000000, 0.000000000000000000 ) ) ;
#118 = APPROVAL ( #120, 'UNSPECIFIED' ) ;
#119 = AXIS2_PLACEMENT_3D ( 'NONE', #148, #226, #46 ) ;
#120 = APPROVAL_STATUS ( 'not_yet_approved' ) ;
#121 = PERSON_AND_ORGANIZATION_ROLE ( 'creator' ) ;
#122 = VERTEX_POINT ( 'NONE', #83 ) ;
#123 = VERTEX_POINT ( 'NONE', #223 ) ;
#124 = ADVANCED_FACE ( 'NONE', ( #151 ), #203, .F. ) ;
#125 = ORIENTED_EDGE ( 'NONE', *, *, #139, .T. ) ;
#126 = DIRECTION ( 'NONE',  ( -0.000000000000000000, -1.000000000000000000, -0.000000000000000000 ) ) ;
#127 = LINE ( 'NONE', #166, #95 ) ;
#128 = CC_DESIGN_PERSON_AND_ORGANIZATION_ASSIGNMENT ( #31, #157, ( #7 ) ) ;
#129 = VECTOR ( 'NONE', #140, 1000.000000000000000 ) ;
#130 = FACE_OUTER_BOUND ( 'NONE', #77, .T. ) ;
#131 = DIRECTION ( 'NONE',  ( -1.000000000000000000, 0.000000000000000000, 0.000000000000000000 ) ) ;
#132 = EDGE_CURVE ( 'NONE', #122, #178, #169, .T. ) ;
#133 = DIRECTION ( 'NONE',  ( 1.000000000000000000, 0.000000000000000000, 0.000000000000000000 ) ) ;
#134 = DATE_AND_TIME ( #10, #211 ) ;
#135 = PERSON_AND_ORGANIZATION ( #74, #215 ) ;
#136 = EDGE_CURVE ( 'NONE', #4, #91, #146, .T. ) ;
#137 = VECTOR ( 'NONE', #22, 1000.000000000000000 ) ;
#138 = ORIENTED_EDGE ( 'NONE', *, *, #68, .T. ) ;
#139 = EDGE_CURVE ( 'NONE', #39, #122, #127, .T. ) ;
#140 = DIRECTION ( 'NONE',  ( 0.000000000000000000, 0.000000000000000000, -1.000000000000000000 ) ) ;
#141 = DIRECTION ( 'NONE',  ( -0.000000000000000000, -1.000000000000000000, -0.000000000000000000 ) ) ;
#142 = ORIENTED_EDGE ( 'NONE', *, *, #8, .T. ) ;
#143 = ORIENTED_EDGE ( 'NONE', *, *, #18, .F. ) ;
#144 = VECTOR ( 'NONE', #78, 1000.000000000000000 ) ;
#145 = CARTESIAN_POINT ( 'NONE',  ( 0.000000000000000000, 15.00000000000000000, -15.00000000000000000 ) ) ;
#146 = LINE ( 'NONE', #81, #82 ) ;
#147 = DIRECTION ( 'NONE',  ( 1.000000000000000000, 0.000000000000000000, 0.000000000000000000 ) ) ;
#148 = CARTESIAN_POINT ( 'NONE',  ( 0.000000000000000000, 15.00000000000000000, 0.000000000000000000 ) ) ;
#149 = CC_DESIGN_PERSON_AND_ORGANIZATION_ASSIGNMENT ( #65, #121, ( #200 ) ) ;
#150 = APPLICATION_PROTOCOL_DEFINITION ( 'international standard', 'config_control_design', 1994, #64 ) ;
#151 = FACE_OUTER_BOUND ( 'NONE', #235, .T. ) ;
#152 = PERSON_AND_ORGANIZATION_ROLE ( 'classification_officer' ) ;
#153 = CALENDAR_DATE ( 2025, 14, 6 ) ;
#154 = APPLICATION_PROTOCOL_DEFINITION ( 'international standard', 'config_control_design', 1994, #11 ) ;
#155 = APPROVAL_STATUS ( 'not_yet_approved' ) ;
#156 = APPROVAL_ROLE ( '' ) ;
#157 = PERSON_AND_ORGANIZATION_ROLE ( 'creator' ) ;
#158 = CARTESIAN_POINT ( 'NONE',  ( 15.00000000000000000, 15.00000000000000000, 0.000000000000000000 ) ) ;
#159 = CARTESIAN_POINT ( 'NONE',  ( 0.000000000000000000, 15.00000000000000000, 0.000000000000000000 ) ) ;
#160 = VECTOR ( 'NONE', #126, 1000.000000000000000 ) ;
#161 = ORIENTED_EDGE ( 'NONE', *, *, #132, .T. ) ;
#162 = ORIENTED_EDGE ( 'NONE', *, *, #139, .F. ) ;
#163 = ORIENTED_EDGE ( 'NONE', *, *, #73, .T. ) ;
#164 = PRODUCT_RELATED_PRODUCT_CATEGORY ( 'detail', '', ( #67 ) ) ;
#165 = AXIS2_PLACEMENT_3D ( 'NONE', #9, #131, #205 ) ;
#166 = CARTESIAN_POINT ( 'NONE',  ( 0.000000000000000000, 0.000000000000000000, 0.000000000000000000 ) ) ;
#167 = CARTESIAN_POINT ( 'NONE',  ( 0.000000000000000000, 0.000000000000000000, 0.000000000000000000 ) ) ;
#168 = LOCAL_TIME ( 18, 52, 47.00000000000000000, #233 ) ;
#169 = LINE ( 'NONE', #96, #17 ) ;
#170 = PLANE ( 'NONE',  #165 ) ;
#171 = APPROVAL_DATE_TIME ( #87, #107 ) ;
#172 = AXIS2_PLACEMENT_3D ( 'NONE', #53, #111, #180 ) ;
#173 = DESIGN_CONTEXT ( 'detailed design', #11, 'design' ) ;
#174 = PERSON_AND_ORGANIZATION ( #74, #215 ) ;
#175 = ADVANCED_FACE ( 'NONE', ( #5 ), #202, .T. ) ;
#176 = COORDINATED_UNIVERSAL_TIME_OFFSET ( 5, 30, .AHEAD. ) ;
#177 = ORIENTED_EDGE ( 'NONE', *, *, #18, .T. ) ;
#178 = VERTEX_POINT ( 'NONE', #114 ) ;
#179 = LINE ( 'NONE', #24, #110 ) ;
#180 = DIRECTION ( 'NONE',  ( 1.000000000000000000, 0.000000000000000000, -0.000000000000000000 ) ) ;
#181 = VERTEX_POINT ( 'NONE', #28 ) ;
#182 = CC_DESIGN_PERSON_AND_ORGANIZATION_ASSIGNMENT ( #212, #51, ( #7 ) ) ;
#183 = VECTOR ( 'NONE', #27, 1000.000000000000000 ) ;
#184 = DIRECTION ( 'NONE',  ( 0.000000000000000000, -1.000000000000000000, 0.000000000000000000 ) ) ;
#185 = EDGE_CURVE ( 'NONE', #178, #181, #186, .T. ) ;
#186 = LINE ( 'NONE', #207, #144 ) ;
#187 = FACE_OUTER_BOUND ( 'NONE', #52, .T. ) ;
#188 = VECTOR ( 'NONE', #214, 1000.000000000000000 ) ;
#189 = DIRECTION ( 'NONE',  ( 0.000000000000000000, -1.000000000000000000, 0.000000000000000000 ) ) ;
#190 = SHAPE_DEFINITION_REPRESENTATION ( #35, #204 ) ;
#191 = CALENDAR_DATE ( 2025, 14, 6 ) ;
#192 = CALENDAR_DATE ( 2025, 14, 6 ) ;
#193 = COORDINATED_UNIVERSAL_TIME_OFFSET ( 5, 30, .AHEAD. ) ;
#194 = DATE_AND_TIME ( #49, #105 ) ;
#195 = CC_DESIGN_APPROVAL ( #107, ( #7 ) ) ;
#196 = CARTESIAN_POINT ( 'NONE',  ( 15.00000000000000000, 15.00000000000000000, 0.000000000000000000 ) ) ;
#197 = ORIENTED_EDGE ( 'NONE', *, *, #132, .F. ) ;
#198 = EDGE_LOOP ( 'NONE', ( #112, #55, #71, #109 ) ) ;
#199 = PLANE ( 'NONE',  #172 ) ;
#200 = PRODUCT_DEFINITION ( 'UNKNOWN', '', #7, #173 ) ;
#201 = DIRECTION ( 'NONE',  ( -0.000000000000000000, -0.000000000000000000, 1.000000000000000000 ) ) ;
#202 = PLANE ( 'NONE',  #70 ) ;
#203 = PLANE ( 'NONE',  #29 ) ;
#204 = ADVANCED_BREP_SHAPE_REPRESENTATION ( 'block', ( #20, #40 ), #234 ) ;
#205 = DIRECTION ( 'NONE',  ( 0.000000000000000000, 0.000000000000000000, 1.000000000000000000 ) ) ;
#206 = CARTESIAN_POINT ( 'NONE',  ( 0.000000000000000000, 15.00000000000000000, 0.000000000000000000 ) ) ;
#207 = CARTESIAN_POINT ( 'NONE',  ( 0.000000000000000000, 0.000000000000000000, -15.00000000000000000 ) ) ;
#208 = APPROVAL ( #155, 'UNSPECIFIED' ) ;
#209 = PERSON_AND_ORGANIZATION ( #74, #215 ) ;
#210 = DATE_TIME_ROLE ( 'creation_date' ) ;
#211 = LOCAL_TIME ( 18, 52, 47.00000000000000000, #193 ) ;
#212 = PERSON_AND_ORGANIZATION ( #74, #215 ) ;
#213 = ORIENTED_EDGE ( 'NONE', *, *, #217, .T. ) ;
#214 = DIRECTION ( 'NONE',  ( -0.000000000000000000, -1.000000000000000000, -0.000000000000000000 ) ) ;
#215 = ORGANIZATION ( 'UNSPECIFIED', 'UNSPECIFIED', '' ) ;
#216 = LINE ( 'NONE', #158, #129 ) ;
#217 = EDGE_CURVE ( 'NONE', #123, #88, #222, .T. ) ;
#218 = LINE ( 'NONE', #159, #137 ) ;
#219 = UNCERTAINTY_MEASURE_WITH_UNIT (LENGTH_MEASURE( 1.000000000000000082E-05 ), #227, 'distance_accuracy_value', 'NONE');
#220 = DIRECTION ( 'NONE',  ( -0.000000000000000000, -1.000000000000000000, -0.000000000000000000 ) ) ;
#221 = LINE ( 'NONE', #57, #188 ) ;
#222 = LINE ( 'NONE', #58, #183 ) ;
#223 = CARTESIAN_POINT ( 'NONE',  ( 15.00000000000000000, 15.00000000000000000, -15.00000000000000000 ) ) ;
#224 = ADVANCED_FACE ( 'NONE', ( #187 ), #116, .F. ) ;
#225 = CLOSED_SHELL ( 'NONE', ( #100, #124, #98, #80, #224, #175 ) ) ;
#226 = DIRECTION ( 'NONE',  ( 1.000000000000000000, -0.000000000000000000, 0.000000000000000000 ) ) ;
#227 =( LENGTH_UNIT ( ) NAMED_UNIT ( * ) SI_UNIT ( .MILLI., .METRE. ) );
#228 = DIRECTION ( 'NONE',  ( 0.000000000000000000, 0.000000000000000000, -1.000000000000000000 ) ) ;
#229 = APPROVAL_PERSON_ORGANIZATION ( #85, #208, #232 ) ;
#230 = COORDINATED_UNIVERSAL_TIME_OFFSET ( 5, 30, .AHEAD. ) ;
#231 = CC_DESIGN_DATE_AND_TIME_ASSIGNMENT ( #50, #62, ( #33 ) ) ;
#232 = APPROVAL_ROLE ( '' ) ;
#233 = COORDINATED_UNIVERSAL_TIME_OFFSET ( 5, 30, .AHEAD. ) ;
#234 =( GEOMETRIC_REPRESENTATION_CONTEXT ( 3 ) GLOBAL_UNCERTAINTY_ASSIGNED_CONTEXT ( ( #219 ) ) GLOBAL_UNIT_ASSIGNED_CONTEXT ( ( #227, #115, #43 ) ) REPRESENTATION_CONTEXT ( 'NONE', 'WORKASPACE' ) );
#235 = EDGE_LOOP ( 'NONE', ( #125, #1, #92, #163 ) ) ;
#236 = CARTESIAN_POINT ( 'NONE',  ( 0.000000000000000000, 0.000000000000000000, 0.000000000000000000 ) ) ;
#237 = APPROVAL_PERSON_ORGANIZATION ( #174, #107, #156 ) ;
ENDSEC;
END-ISO-10303-21;
